<svg width="35" height="35" viewBox="0 0 35 35" fill="none" xmlns="http://www.w3.org/2000/svg">
    <g clip-path="url(#clip0_2979_12063)">
        <path d="M17.5 24.3341C15.8968 24.3341 14.3875 23.7076 13.2497 22.5697C12.1124 21.4319 11.4859 19.9227 11.4854 18.3195C11.4854 16.7163 12.1119 15.2066 13.2497 14.0691C15.2302 12.0883 18.2732 11.7286 20.6502 13.1962C20.6807 13.215 20.7072 13.2397 20.7282 13.2688C20.7492 13.2979 20.7642 13.3309 20.7724 13.3658C20.7806 13.4007 20.7819 13.4369 20.7761 13.4723C20.7704 13.5077 20.7577 13.5416 20.7388 13.5722C20.7008 13.6337 20.6398 13.6777 20.5694 13.6944C20.4989 13.711 20.4247 13.699 20.3631 13.661C18.2028 12.3284 15.4368 12.6542 13.6361 14.4554C12.6019 15.49 12.0319 16.8623 12.0319 18.3195C12.0324 19.7764 12.6019 21.1491 13.6361 22.1833C14.671 23.2176 16.043 23.7876 17.5 23.7876H17.5005C18.9579 23.7876 20.33 23.2176 21.3648 22.1833C23.166 20.3827 23.492 17.6172 22.1584 15.4571C22.1204 15.3954 22.1084 15.3212 22.1251 15.2506C22.1418 15.1801 22.1858 15.1192 22.2475 15.0811C22.278 15.0622 22.3119 15.0495 22.3473 15.0437C22.3827 15.0379 22.4189 15.0392 22.4538 15.0474C22.4887 15.0557 22.5217 15.0708 22.5508 15.0918C22.5798 15.1128 22.6044 15.1394 22.6232 15.17C24.0908 17.5467 23.7322 20.5897 21.7512 22.5697C20.6134 23.7075 19.1037 24.334 17.5004 24.334C17.5005 24.3341 17.5005 24.3341 17.5 24.3341Z"
              fill="#464747"/>
        <path d="M17.5005 22.4142C16.4513 22.4142 15.4027 22.015 14.6043 21.2166C13.0076 19.6187 13.0076 17.02 14.6043 15.4233C15.915 14.1123 17.9488 13.8436 19.5488 14.77C19.5799 14.788 19.6071 14.8118 19.629 14.8403C19.6508 14.8688 19.6669 14.9013 19.6761 14.936C19.6854 14.9706 19.6877 15.0068 19.683 15.0424C19.6783 15.078 19.6666 15.1123 19.6486 15.1433C19.6122 15.206 19.5524 15.2516 19.4824 15.2703C19.4123 15.2889 19.3378 15.2791 19.275 15.2429C17.889 14.44 16.1269 14.6734 14.9907 15.8096C13.6068 17.1934 13.6068 19.4458 14.9907 20.8301C16.3745 22.2135 18.6266 22.2135 20.011 20.8301C21.1477 19.6923 21.3803 17.9299 20.5762 16.5429C20.5581 16.5118 20.5464 16.4775 20.5416 16.4419C20.5368 16.4064 20.5391 16.3702 20.5483 16.3355C20.5576 16.3008 20.5735 16.2682 20.5953 16.2397C20.6171 16.2112 20.6444 16.1873 20.6754 16.1693C20.7382 16.1331 20.8127 16.1232 20.8827 16.1418C20.9527 16.1604 21.0125 16.206 21.049 16.2685C21.9771 17.8696 21.7092 19.9047 20.3974 21.2165C19.5984 22.015 18.5492 22.4131 17.5005 22.4142Z"
              fill="#464747"/>
        <path d="M17.4999 20.5034C16.9406 20.5034 16.3814 20.2899 15.956 19.8651C15.1042 19.0122 15.1042 17.6265 15.956 16.7748C16.4475 16.2825 17.1226 16.0565 17.8121 16.1557C17.9616 16.1773 18.0651 16.3158 18.0437 16.4652C18.0224 16.6147 17.8868 16.7182 17.7342 16.6968C17.2182 16.6213 16.7111 16.7916 16.3424 17.1611C15.7036 17.8 15.7036 18.8393 16.3424 19.4787C16.9812 20.1169 18.0203 20.1158 18.6591 19.4787C19.0284 19.1083 19.1976 18.6002 19.1229 18.0847C19.1126 18.013 19.1312 17.9403 19.1745 17.8823C19.2179 17.8243 19.2824 17.7859 19.354 17.7754C19.5039 17.7568 19.6422 17.8576 19.6635 18.007C19.7632 18.6942 19.5381 19.3709 19.0455 19.8651C18.619 20.2898 18.0597 20.5034 17.4999 20.5034ZM21.0521 33.0747H13.9478C13.9119 33.0747 13.8763 33.0676 13.8432 33.0539C13.8101 33.0401 13.7799 33.0199 13.7546 32.9945L12.6616 31.9016C12.6362 31.8763 12.6161 31.8461 12.6023 31.813C12.5886 31.7798 12.5815 31.7443 12.5815 31.7084V27.883C12.5815 27.8471 12.5885 27.8116 12.6022 27.7784C12.6159 27.7452 12.636 27.7151 12.6614 27.6897C12.6868 27.6643 12.717 27.6442 12.7501 27.6305C12.7833 27.6168 12.8189 27.6097 12.8548 27.6098H22.145C22.1809 27.6097 22.2165 27.6168 22.2497 27.6305C22.2829 27.6442 22.313 27.6643 22.3384 27.6897C22.3638 27.7151 22.3839 27.7452 22.3976 27.7784C22.4113 27.8116 22.4183 27.8471 22.4183 27.883V31.7084C22.4183 31.7443 22.4112 31.7798 22.3974 31.813C22.3837 31.8461 22.3636 31.8762 22.3382 31.9016L21.2453 32.9945C21.2199 33.0199 21.1898 33.0401 21.1567 33.0538C21.1235 33.0676 21.088 33.0747 21.0521 33.0747ZM14.0609 32.5281H20.939L21.8718 31.5953V28.1563H13.128V31.5953L14.0609 32.5281Z"
              fill="#464747"/>
        <path d="M12.3083 29.7959C12.2383 29.7959 12.1709 29.769 12.1202 29.7207C12.0694 29.6724 12.0391 29.6065 12.0356 29.5366C12.0276 29.3861 12.1434 29.258 12.2939 29.2494L22.6771 28.703C22.8266 28.6838 22.9563 28.8108 22.9642 28.9613C22.9662 28.9971 22.961 29.033 22.9491 29.0668C22.9371 29.1006 22.9186 29.1317 22.8947 29.1584C22.8707 29.1851 22.8417 29.2067 22.8093 29.2222C22.7769 29.2376 22.7418 29.2465 22.706 29.2484L12.3227 29.7948C12.3179 29.7959 12.3131 29.7959 12.3083 29.7959ZM12.3083 31.4354C12.2383 31.4354 12.1709 31.4085 12.1202 31.3602C12.0694 31.312 12.0392 31.246 12.0356 31.1761C12.0276 31.0256 12.1434 30.8975 12.2939 30.889L22.6771 30.3425C22.8266 30.3243 22.9563 30.4503 22.9642 30.6008C22.9722 30.7512 22.8565 30.8804 22.706 30.8879L12.3227 31.4343C12.3179 31.4354 12.3131 31.4354 12.3083 31.4354ZM22.145 28.1565H12.8548C12.7823 28.1565 12.7129 28.1277 12.6616 28.0764C12.6104 28.0252 12.5816 27.9557 12.5816 27.8833V26.1893C9.84116 24.4762 8.2097 21.5464 8.2097 18.3197C8.2097 13.1965 12.3772 9.02867 17.4999 9.02867C22.6227 9.02867 26.7901 13.1964 26.7901 18.3197C26.7901 21.5464 25.1587 24.4773 22.4183 26.1893V27.8832C22.4182 27.9557 22.3894 28.0252 22.3382 28.0764C22.287 28.1276 22.2175 28.1565 22.145 28.1565ZM13.128 27.6101H21.8718V26.0368C21.8718 25.9407 21.922 25.8521 22.0036 25.8019C24.6587 24.2019 26.2437 21.4044 26.2437 18.3197C26.2437 13.498 22.3211 9.57521 17.4999 9.57521C12.6787 9.57521 8.75616 13.498 8.75616 18.3197C8.75616 21.4044 10.3412 24.2019 12.9962 25.803C13.0365 25.8273 13.0698 25.8616 13.0929 25.9025C13.116 25.9435 13.1281 25.9897 13.128 26.0368V27.6101ZM17.4999 34.1678C15.4421 34.1678 14.8219 32.9745 14.7963 32.9233C14.7803 32.8912 14.7708 32.8563 14.7682 32.8206C14.7657 32.7848 14.7702 32.7489 14.7816 32.7149C14.7929 32.6809 14.8109 32.6495 14.8344 32.6224C14.8579 32.5954 14.8865 32.5732 14.9186 32.5572C14.9505 32.541 14.9853 32.5313 15.0209 32.5286C15.0566 32.5259 15.0925 32.5303 15.1264 32.5415C15.1604 32.5527 15.1918 32.5705 15.2189 32.5939C15.246 32.6173 15.2681 32.6459 15.2841 32.6779C15.3081 32.7227 15.8055 33.6214 17.5 33.6214C19.2008 33.6214 19.6955 32.7152 19.7158 32.6768C19.7857 32.5444 19.9495 32.4911 20.083 32.5594C20.2164 32.6277 20.2703 32.7899 20.2036 32.9234C20.1779 32.9745 19.5578 34.1678 17.4999 34.1678ZM5.75102 18.593H0.285684C0.213229 18.5929 0.143753 18.5641 0.0925197 18.5129C0.0412865 18.4617 0.0124879 18.3922 0.0124517 18.3197C0.0123797 18.2838 0.019396 18.2482 0.0330983 18.215C0.0468007 18.1819 0.0669198 18.1517 0.0923025 18.1263C0.117685 18.1009 0.147833 18.0807 0.181017 18.067C0.214201 18.0532 0.24977 18.0462 0.285684 18.0462H5.75102C5.78693 18.0462 5.82251 18.0532 5.85569 18.067C5.88888 18.0807 5.91903 18.1009 5.94442 18.1263C5.96981 18.1517 5.98994 18.1818 6.00365 18.215C6.01736 18.2482 6.02438 18.2838 6.02432 18.3197C6.02426 18.3922 5.99545 18.4617 5.94421 18.5129C5.89296 18.5641 5.82348 18.5929 5.75102 18.593ZM34.7142 18.593H29.2493C29.1779 18.5914 29.1099 18.5619 29.06 18.5108C29.01 18.4597 28.982 18.3911 28.982 18.3196C28.982 18.2481 29.01 18.1795 29.06 18.1284C29.1099 18.0773 29.1779 18.0478 29.2493 18.0462H34.7142C34.7856 18.0478 34.8536 18.0773 34.9036 18.1284C34.9535 18.1795 34.9815 18.2481 34.9815 18.3196C34.9815 18.3911 34.9535 18.4597 34.9036 18.5108C34.8536 18.5619 34.7856 18.5914 34.7142 18.593ZM1.59641 25.1807C1.54238 25.1806 1.48959 25.1646 1.44466 25.1346C1.39974 25.1046 1.3647 25.0619 1.34396 25.0121C1.31621 24.945 1.3162 24.8697 1.34392 24.8027C1.37164 24.7357 1.42484 24.6824 1.49182 24.6545L6.54091 22.5625C6.60793 22.5348 6.68319 22.5349 6.75014 22.5627C6.8171 22.5905 6.87026 22.6438 6.89795 22.7108C6.92559 22.7777 6.92554 22.8528 6.89783 22.9196C6.87012 22.9865 6.817 23.0396 6.75016 23.0673L1.701 25.1594C1.66682 25.1743 1.631 25.1807 1.59641 25.1807ZM28.3549 14.0959C28.3009 14.096 28.248 14.08 28.2031 14.05C28.1581 14.02 28.1231 13.9773 28.1025 13.9273C28.0748 13.8603 28.0748 13.7851 28.1025 13.7182C28.1303 13.6512 28.1834 13.598 28.2503 13.5703L33.299 11.4793C33.3659 11.4517 33.4411 11.4517 33.508 11.4794C33.575 11.5072 33.6282 11.5603 33.656 11.6271C33.6837 11.6941 33.6837 11.7693 33.656 11.8362C33.6283 11.9032 33.5751 11.9564 33.5082 11.9842L28.4596 14.0751C28.4264 14.0889 28.3909 14.0959 28.3549 14.0959ZM5.3278 30.7651C5.29192 30.7652 5.25638 30.7581 5.22322 30.7444C5.19007 30.7306 5.15996 30.7105 5.13462 30.6851C5.10923 30.6597 5.08909 30.6296 5.07534 30.5964C5.0616 30.5633 5.05453 30.5278 5.05453 30.4919C5.05453 30.456 5.0616 30.4205 5.07534 30.3873C5.08909 30.3542 5.10923 30.3241 5.13462 30.2987L8.99897 26.4338C9.05021 26.3826 9.1197 26.3538 9.19216 26.3538C9.26462 26.3538 9.33411 26.3826 9.38534 26.4338C9.43658 26.485 9.46536 26.5545 9.46536 26.627C9.46536 26.6994 9.43658 26.7689 9.38534 26.8202L5.52099 30.6851C5.49564 30.7105 5.46553 30.7306 5.43238 30.7444C5.39923 30.7581 5.36369 30.7651 5.3278 30.7651ZM21.9966 7.73771C21.9517 7.73767 21.9075 7.72656 21.8679 7.70536C21.8283 7.68417 21.7945 7.65354 21.7695 7.61618C21.7446 7.57883 21.7292 7.5359 21.7248 7.4912C21.7204 7.4465 21.7271 7.4014 21.7442 7.35988L23.8352 2.31127C23.849 2.27812 23.8691 2.248 23.8945 2.22263C23.9199 2.19725 23.95 2.17713 23.9831 2.1634C24.0163 2.14968 24.0518 2.14261 24.0877 2.14262C24.1236 2.14263 24.1591 2.1497 24.1923 2.16344C24.2254 2.17718 24.2556 2.19732 24.2809 2.2227C24.3063 2.24808 24.3264 2.27821 24.3402 2.31136C24.3539 2.34452 24.3609 2.38006 24.3609 2.41595C24.3609 2.45183 24.3539 2.48737 24.3401 2.52052L22.2491 7.56913C22.2284 7.61901 22.1933 7.66162 22.1484 7.69162C22.1034 7.72161 22.0506 7.73765 21.9966 7.73771ZM17.5005 6.84329C17.4646 6.84332 17.4291 6.83627 17.3959 6.82255C17.3627 6.80883 17.3326 6.7887 17.3072 6.76333C17.2818 6.73795 17.2617 6.70782 17.248 6.67466C17.2342 6.6415 17.2272 6.60595 17.2272 6.57006V1.10575C17.2272 1.06986 17.2342 1.03432 17.248 1.00115C17.2617 0.967991 17.2818 0.93786 17.3072 0.912483C17.3326 0.887107 17.3627 0.866983 17.3959 0.853262C17.4291 0.839541 17.4646 0.832493 17.5005 0.83252C17.5364 0.832502 17.5719 0.839557 17.6051 0.853282C17.6382 0.867006 17.6684 0.887132 17.6937 0.912507C17.7191 0.937883 17.7392 0.968011 17.753 1.00117C17.7667 1.03433 17.7737 1.06987 17.7737 1.10575V6.57013C17.7737 6.60601 17.7667 6.64154 17.7529 6.67469C17.7392 6.70784 17.7191 6.73796 17.6937 6.76333C17.6683 6.7887 17.6382 6.80882 17.6051 6.82254C17.5719 6.83626 17.5364 6.84331 17.5005 6.84329ZM13.0042 7.73771C12.9502 7.73778 12.8973 7.72178 12.8524 7.69176C12.8074 7.66173 12.7724 7.61903 12.7518 7.56906L10.6609 2.52045C10.6332 2.4535 10.6332 2.37829 10.6609 2.31135C10.6886 2.24441 10.7417 2.1912 10.8087 2.16341C10.8756 2.13577 10.9508 2.13581 11.0177 2.16351C11.0846 2.19122 11.1379 2.24433 11.1657 2.3112L13.2566 7.35982C13.2738 7.40133 13.2804 7.44644 13.276 7.49114C13.2716 7.53585 13.2562 7.57878 13.2313 7.61613C13.2063 7.65349 13.1726 7.68413 13.133 7.70533C13.0934 7.72653 13.0491 7.73765 13.0042 7.73771ZM29.672 30.7651C29.6361 30.7651 29.6006 30.7581 29.5674 30.7443C29.5343 30.7306 29.5042 30.7105 29.4788 30.6851L25.614 26.8202C25.5886 26.7948 25.5685 26.7647 25.5548 26.7315C25.541 26.6984 25.534 26.6629 25.534 26.627C25.534 26.5911 25.541 26.5556 25.5548 26.5224C25.5685 26.4893 25.5886 26.4592 25.614 26.4338C25.6394 26.4084 25.6695 26.3883 25.7026 26.3746C25.7358 26.3608 25.7713 26.3538 25.8072 26.3538C25.8431 26.3538 25.8786 26.3608 25.9117 26.3746C25.9449 26.3883 25.975 26.4084 26.0004 26.4338L29.8652 30.2987C29.8906 30.3241 29.9107 30.3542 29.9245 30.3873C29.9382 30.4205 29.9453 30.456 29.9453 30.4919C29.9453 30.5278 29.9382 30.5633 29.9245 30.5964C29.9107 30.6296 29.8906 30.6597 29.8652 30.6851C29.8398 30.7105 29.8097 30.7306 29.7766 30.7444C29.7434 30.7581 29.7079 30.7651 29.672 30.7651ZM9.19271 10.2844C9.15682 10.2845 9.12128 10.2774 9.08812 10.2637C9.05497 10.25 9.02486 10.2298 8.99952 10.2044L5.13571 6.34058C5.11032 6.31522 5.09018 6.28511 5.07644 6.25196C5.0627 6.21881 5.05562 6.18328 5.05562 6.14739C5.05562 6.11151 5.0627 6.07598 5.07644 6.04283C5.09018 6.00968 5.11032 5.97957 5.13571 5.95421C5.16107 5.92882 5.19118 5.90868 5.22433 5.89493C5.25748 5.88119 5.29301 5.87412 5.3289 5.87412C5.36478 5.87412 5.40031 5.88119 5.43346 5.89493C5.46661 5.90868 5.49672 5.92882 5.52208 5.95421L9.38589 9.81802C9.42413 9.85622 9.45017 9.9049 9.46073 9.95791C9.47129 10.0109 9.46588 10.0659 9.4452 10.1158C9.42452 10.1657 9.38949 10.2084 9.34454 10.2384C9.29959 10.2684 9.24675 10.2845 9.19271 10.2844ZM33.4035 25.1807C33.3682 25.1807 33.3331 25.1743 33.2989 25.1594L28.2493 23.0673C28.1824 23.0396 28.1293 22.9865 28.1015 22.9197C28.0738 22.8528 28.0738 22.7777 28.1014 22.7108C28.1591 22.571 28.3197 22.5037 28.4585 22.5625L33.5081 24.6545C33.5751 24.6824 33.6283 24.7357 33.656 24.8027C33.6837 24.8698 33.6837 24.945 33.6559 25.0121C33.6351 25.0619 33.6 25.1044 33.5551 25.1344C33.5102 25.1644 33.4575 25.1805 33.4035 25.1807ZM6.64605 14.0959C6.61015 14.096 6.5746 14.0889 6.54146 14.0752L1.49284 11.9843C1.42592 11.9565 1.37276 11.9033 1.34503 11.8363C1.31731 11.7694 1.31729 11.6942 1.34498 11.6272C1.3728 11.5603 1.42601 11.5072 1.49294 11.4795C1.55987 11.4518 1.63506 11.4517 1.70202 11.4794L6.75064 13.5703C6.81755 13.5981 6.87069 13.6513 6.8984 13.7183C6.92611 13.7852 6.92612 13.8604 6.89843 13.9274C6.87767 13.9772 6.84263 14.0198 6.79773 14.0498C6.75282 14.0798 6.70005 14.0959 6.64605 14.0959Z"
              fill="#464747"/>
        <path d="M17.5015 18.593C17.4657 18.5931 17.4301 18.586 17.397 18.5723C17.3638 18.5585 17.3337 18.5384 17.3084 18.513C17.283 18.4876 17.2628 18.4575 17.2491 18.4244C17.2353 18.3912 17.2283 18.3557 17.2283 18.3198C17.2283 18.2839 17.2353 18.2484 17.2491 18.2152C17.2628 18.1821 17.283 18.152 17.3084 18.1266L29.6027 5.83156C29.628 5.80617 29.6581 5.78602 29.6913 5.77228C29.7244 5.75854 29.76 5.75146 29.7958 5.75146C29.8317 5.75146 29.8673 5.75854 29.9004 5.77228C29.9336 5.78602 29.9637 5.80617 29.989 5.83156C30.0144 5.85691 30.0346 5.88703 30.0483 5.92018C30.062 5.95332 30.0691 5.98886 30.0691 6.02474C30.0691 6.06062 30.062 6.09616 30.0483 6.1293C30.0346 6.16245 30.0144 6.19257 29.989 6.21792L17.6947 18.513C17.6693 18.5384 17.6392 18.5586 17.6061 18.5723C17.5729 18.586 17.5374 18.5931 17.5015 18.593Z"
              fill="#464747"/>
        <path d="M26.3125 9.77957C26.2766 9.7796 26.2411 9.77256 26.208 9.75885C26.1748 9.74515 26.1447 9.72505 26.1193 9.6997C26.094 9.67435 26.0738 9.64425 26.0601 9.61112C26.0464 9.57799 26.0393 9.54248 26.0393 9.50661C26.0392 9.4342 26.0679 9.36472 26.119 9.31343C26.1701 9.26214 26.2395 9.23325 26.3119 9.23311L27.7454 9.23202L29.9997 6.97752L29.2008 6.84039C29.1654 6.83438 29.1316 6.82144 29.1012 6.80233C29.0708 6.78321 29.0445 6.75829 29.0238 6.72899C29.0031 6.69969 28.9883 6.66659 28.9804 6.63158C28.9725 6.59657 28.9716 6.56035 28.9777 6.52498C29.0033 6.37637 29.1452 6.27602 29.293 6.30193L30.6123 6.5282C30.7132 6.54529 30.7959 6.61734 30.8269 6.71475C30.8578 6.81216 30.8316 6.91839 30.7597 6.99065L28.0518 9.6985C28.0264 9.72388 27.9963 9.74402 27.9632 9.75775C27.93 9.77149 27.8945 9.77855 27.8586 9.77855L26.3125 9.77957Z"
              fill="#464747"/>
        <path d="M26.3125 9.77955C26.24 9.77953 26.1705 9.75073 26.1193 9.6995C26.0681 9.64826 26.0393 9.57877 26.0393 9.50632L26.0399 7.95968C26.0399 7.88709 26.0686 7.8177 26.1198 7.7665L28.8235 5.06289C28.8588 5.02751 28.9032 5.00253 28.9518 4.99068C29.0003 4.97883 29.0512 4.98056 29.0989 4.99569C29.1465 5.01072 29.1891 5.03854 29.2221 5.07613C29.255 5.11371 29.277 5.15962 29.2856 5.20883L29.5161 6.5238C29.5224 6.55916 29.5216 6.5954 29.5138 6.63046C29.506 6.66551 29.4914 6.69869 29.4707 6.72808C29.4501 6.75748 29.4239 6.78252 29.3936 6.80178C29.3633 6.82103 29.3295 6.83412 29.2941 6.8403C29.1463 6.86484 29.0038 6.76695 28.9777 6.61827L28.8379 5.82099L26.5863 8.07282L26.5857 9.50625C26.5857 9.57871 26.5569 9.64819 26.5056 9.69944C26.4544 9.75068 26.3849 9.77949 26.3125 9.77955Z"
              fill="#464747"/>
    </g>
    <defs>
        <clipPath id="clip0_2979_12063">
            <rect width="35" height="35" fill="white"/>
        </clipPath>
    </defs>
</svg>
