<svg width="35" height="35" viewBox="0 0 35 35" fill="none" xmlns="http://www.w3.org/2000/svg">
    <path d="M20.9806 21.9473C18.8635 21.9473 16.8731 21.123 15.3763 19.6257C14.5367 18.7865 13.91 17.7979 13.5136 16.6862C13.4893 16.6179 13.4931 16.5427 13.5242 16.4772C13.5553 16.4117 13.6111 16.3612 13.6794 16.3368C13.7477 16.3127 13.8228 16.3166 13.8883 16.3476C13.9537 16.3787 14.0042 16.4344 14.0288 16.5026C14.3976 17.5371 14.9811 18.4577 15.7628 19.2392C17.1566 20.633 19.0098 21.4006 20.9806 21.4006C22.952 21.4006 24.8048 20.633 26.1991 19.2392L30.8369 14.6017C32.2307 13.2079 32.9983 11.3548 32.9983 9.38398C32.9989 7.41257 32.2312 5.55948 30.8374 4.1657C29.4432 2.77165 27.5903 2.00377 25.6189 2.00377C23.6481 2.00377 21.7951 2.77165 20.4014 4.1657L15.7629 8.80348C15.1202 9.4464 14.6082 10.189 14.2418 11.0105C14.1804 11.1483 14.0189 11.2115 13.881 11.1488C13.8482 11.1342 13.8186 11.1133 13.7939 11.0872C13.7691 11.0612 13.7498 11.0305 13.737 10.997C13.7241 10.9635 13.718 10.9277 13.719 10.8919C13.72 10.856 13.7281 10.8206 13.7427 10.7879C14.1364 9.90495 14.6862 9.1072 15.3764 8.4169L20.015 3.77913C21.5118 2.28179 23.5019 1.45703 25.619 1.45703C27.7361 1.45703 29.7267 2.28179 31.224 3.77913C34.3143 6.86938 34.3137 11.8976 31.2235 14.9882L26.5857 19.6257C25.0883 21.123 23.0977 21.9473 20.9806 21.9473Z"
          fill="#464747"/>
    <path d="M19.821 23.1072C17.7039 23.1072 15.7136 22.2829 14.2168 20.7857C13.233 19.8018 12.5233 18.5746 12.1646 17.2363C12.1553 17.2016 12.1529 17.1655 12.1576 17.1299C12.1623 17.0943 12.1739 17.06 12.1919 17.0289C12.2281 16.9662 12.2878 16.9204 12.3578 16.9016C12.4278 16.8829 12.5024 16.8927 12.5652 16.9289C12.628 16.9652 12.6738 17.0249 12.6925 17.0949C13.0265 18.3402 13.6873 19.4831 14.6033 20.3992C15.9971 21.7929 17.85 22.5605 19.821 22.5605C21.7924 22.5605 23.6453 21.7929 25.0396 20.3992L29.6779 15.7611C29.7033 15.7357 29.7334 15.7156 29.7666 15.7018C29.7997 15.6881 29.8353 15.681 29.8712 15.681C29.9071 15.681 29.9426 15.6881 29.9758 15.7018C30.0089 15.7156 30.039 15.7357 30.0644 15.7611C30.0898 15.7865 30.1099 15.8166 30.1237 15.8497C30.1374 15.8829 30.1445 15.9184 30.1445 15.9543C30.1445 15.9902 30.1374 16.0257 30.1237 16.0589C30.1099 16.0921 30.0898 16.1222 30.0644 16.1475L25.4261 20.7857C23.9288 22.283 21.9382 23.1072 19.821 23.1072Z"
          fill="#464747"/>
    <path d="M20.9806 19.7581C19.511 19.7581 18.0411 19.1986 16.9223 18.0798C16.7838 17.9416 16.6524 17.7965 16.5286 17.645C16.5059 17.6172 16.4889 17.5852 16.4785 17.5509C16.4681 17.5165 16.4646 17.4804 16.4682 17.4447C16.4718 17.409 16.4824 17.3744 16.4994 17.3427C16.5164 17.3111 16.5394 17.2831 16.5672 17.2604C16.595 17.2377 16.627 17.2206 16.6614 17.2102C16.6958 17.1999 16.7319 17.1964 16.7676 17.2C16.8033 17.2036 16.838 17.2142 16.8696 17.2312C16.9012 17.2482 16.9292 17.2713 16.9519 17.2991C17.0642 17.4365 17.1832 17.5682 17.3087 17.6936C18.2896 18.674 19.5938 19.2136 20.9811 19.2136C22.368 19.2136 23.6721 18.6739 24.6527 17.6936L29.291 13.0552C30.2716 12.0746 30.8119 10.7705 30.8119 9.38345C30.8119 7.9963 30.2721 6.69221 29.2916 5.71159C27.2657 3.68686 23.9711 3.68686 21.9474 5.71159L17.3088 10.3494C17.0622 10.5964 16.8407 10.8673 16.6477 11.1581C16.5641 11.2836 16.3943 11.3186 16.2689 11.2348C16.239 11.2149 16.2133 11.1894 16.1933 11.1596C16.1732 11.1298 16.1593 11.0964 16.1521 11.0612C16.145 11.0261 16.1449 10.9898 16.1518 10.9546C16.1587 10.9194 16.1725 10.8859 16.1923 10.856C16.4054 10.5348 16.65 10.2356 16.9224 9.96293L21.5609 5.32516C23.7981 3.08714 27.4398 3.08769 29.678 5.32516C30.7617 6.40906 31.3585 7.85035 31.3585 9.38352C31.3585 10.9169 30.7617 12.3582 29.6775 13.4418L25.0391 18.0799C23.9203 19.1987 22.4507 19.7581 20.9806 19.7581Z"
          fill="#464747"/>
    <path d="M28.3247 14.6817C28.2707 14.6818 28.2178 14.6658 28.1728 14.6357C28.1279 14.6057 28.0928 14.563 28.0721 14.5131C28.0514 14.4631 28.046 14.4082 28.0566 14.3551C28.0672 14.3021 28.0932 14.2534 28.1315 14.2152C30.1557 12.1902 30.1557 8.89547 28.1315 6.871C26.1067 4.84627 22.8126 4.84681 20.7878 6.871C20.7624 6.89639 20.7323 6.91653 20.6992 6.93027C20.666 6.94401 20.6305 6.95108 20.5946 6.95108C20.5587 6.95108 20.5231 6.94401 20.49 6.93027C20.4568 6.91653 20.4267 6.89639 20.4013 6.871C20.3759 6.84563 20.3558 6.8155 20.3421 6.78234C20.3283 6.74919 20.3212 6.71364 20.3212 6.67775C20.3212 6.64186 20.3283 6.60632 20.3421 6.57316C20.3558 6.54 20.3759 6.50987 20.4013 6.4845C22.6391 4.24703 26.2802 4.24703 28.5179 6.4845C30.7556 8.72224 30.7556 12.3634 28.5179 14.6017C28.4926 14.6271 28.4625 14.6473 28.4293 14.661C28.3961 14.6747 28.3606 14.6818 28.3247 14.6817ZM10.5447 32.3833H10.5444C8.42729 32.3833 6.437 31.5586 4.94021 30.0612C3.44313 28.5644 2.61865 26.5744 2.61865 24.4572C2.61865 22.3401 3.44313 20.35 4.94021 18.8528L9.57853 14.2152C12.668 11.1239 17.6965 11.1245 20.7879 14.2146C21.7727 15.2006 22.4822 16.4281 22.8394 17.7648C22.8581 17.8348 22.8483 17.9094 22.812 17.9722C22.7758 18.0349 22.7161 18.0807 22.6461 18.0995C22.5004 18.1353 22.3504 18.052 22.3114 17.9063C21.9788 16.6619 21.318 15.519 20.4015 14.6011C17.5237 11.7242 12.8421 11.7242 9.96517 14.6017L5.32678 19.2392C3.933 20.633 3.16539 22.4864 3.16539 24.4572C3.16539 26.4281 3.933 28.281 5.32678 29.6747C6.72063 31.069 8.57344 31.8367 10.5446 31.8367C12.5157 31.8367 14.3687 31.0691 15.7629 29.6752L20.4014 25.0374C20.7772 24.6611 21.1119 24.2458 21.3996 23.7985C21.4189 23.7682 21.4439 23.7419 21.4734 23.7213C21.5028 23.7007 21.536 23.6862 21.5711 23.6785C21.6062 23.6708 21.6425 23.6701 21.6778 23.6765C21.7132 23.6829 21.7469 23.6963 21.7771 23.7158C21.838 23.7549 21.881 23.8166 21.8965 23.8874C21.912 23.9581 21.8988 24.0322 21.8598 24.0932C21.5512 24.5739 21.1919 25.0201 20.7879 25.424L16.1493 30.0618C14.6521 31.5591 12.6618 32.3833 10.5447 32.3833Z"
          fill="#464747"/>
    <path d="M9.38508 33.5428C7.26792 33.5428 5.27764 32.7186 3.78084 31.2213C2.28377 29.7245 1.45901 27.7339 1.45874 25.6168C1.45874 23.4997 2.28322 21.5096 3.78029 20.0123L8.41861 15.3748C8.44399 15.3494 8.47411 15.3292 8.50727 15.3155C8.54043 15.3017 8.57597 15.2947 8.61187 15.2947C8.64776 15.2947 8.6833 15.3017 8.71646 15.3155C8.74962 15.3292 8.77974 15.3494 8.80512 15.3748C8.8305 15.4001 8.85064 15.4303 8.86438 15.4634C8.87812 15.4966 8.88519 15.5321 8.88519 15.568C8.88519 15.6039 8.87812 15.6394 8.86438 15.6726C8.85064 15.7058 8.8305 15.7359 8.80512 15.7613L4.16673 20.3988C2.77295 21.7925 2.00534 23.646 2.00534 25.6168C2.00562 27.5882 2.77322 29.441 4.16728 30.8348C5.56112 32.2286 7.41393 32.9962 9.38508 32.9962C11.3562 32.9962 13.209 32.2286 14.6028 30.8348L19.2409 26.197C19.2662 26.1716 19.2964 26.1515 19.3295 26.1377C19.3627 26.124 19.3982 26.1169 19.4341 26.1169C19.47 26.1169 19.5055 26.124 19.5387 26.1377C19.5719 26.1515 19.602 26.1716 19.6274 26.197C19.6528 26.2224 19.6729 26.2525 19.6866 26.2857C19.7004 26.3188 19.7074 26.3544 19.7074 26.3903C19.7074 26.4261 19.7004 26.4617 19.6866 26.4948C19.6729 26.528 19.6528 26.5581 19.6274 26.5835L14.9892 31.2213C13.4925 32.7186 11.5022 33.5428 9.38508 33.5428Z"
          fill="#464747"/>
    <path d="M10.5444 30.1941C9.07458 30.1941 7.60499 29.6347 6.48608 28.5158C4.24813 26.2781 4.24813 22.6364 6.48608 20.3987L11.1245 15.7612C12.2081 14.6773 13.6494 14.0802 15.1825 14.0802H15.1828C16.7159 14.0805 18.1572 14.6773 19.2413 15.7612C19.8061 16.3262 20.2396 16.987 20.5283 17.7253C20.5414 17.7588 20.5478 17.7945 20.5471 17.8304C20.5464 17.8663 20.5386 17.9017 20.5241 17.9345C20.5097 17.9674 20.4889 17.9971 20.463 18.022C20.4371 18.0468 20.4065 18.0663 20.373 18.0793C20.2326 18.1338 20.0735 18.0649 20.0191 17.9245C19.7581 17.2569 19.3662 16.6591 18.8549 16.1476C17.874 15.167 16.5698 14.6268 15.1828 14.6268C13.7953 14.6268 12.4915 15.1667 11.5109 16.1476L6.87258 20.7852C5.8919 21.7658 5.352 23.0699 5.35172 24.4572C5.35172 25.8446 5.8919 27.1487 6.87258 28.1294C7.8532 29.11 9.15729 29.6502 10.5444 29.6502C11.9315 29.6502 13.2356 29.11 14.2162 28.1294L18.4684 23.8775C18.4938 23.8521 18.5239 23.832 18.557 23.8183C18.5902 23.8045 18.6257 23.7975 18.6616 23.7975C18.6975 23.7975 18.733 23.8045 18.7662 23.8183C18.7993 23.832 18.8295 23.8521 18.8548 23.8775C18.8802 23.9029 18.9003 23.933 18.9141 23.9662C18.9278 23.9994 18.9349 24.0349 18.9349 24.0708C18.9349 24.1067 18.9278 24.1422 18.9141 24.1754C18.9003 24.2085 18.8802 24.2387 18.8548 24.264L14.6027 28.5158C13.4838 29.6348 12.0143 30.1941 10.5444 30.1941Z"
          fill="#464747"/>
    <path d="M18.2635 17.8025C18.2229 17.8026 18.1827 17.7936 18.1461 17.7761C18.1094 17.7587 18.0771 17.7332 18.0515 17.7016C17.9394 17.5642 17.8205 17.4325 17.6952 17.3071C15.6704 15.2829 12.3758 15.2829 10.3515 17.3071C10.3261 17.3324 10.296 17.3526 10.2629 17.3663C10.2297 17.3801 10.1942 17.3871 10.1583 17.3871C10.1224 17.3871 10.0869 17.3801 10.0537 17.3663C10.0206 17.3526 9.99045 17.3324 9.96508 17.3071C9.9397 17.2817 9.91956 17.2516 9.90582 17.2184C9.89208 17.1853 9.88501 17.1497 9.88501 17.1138C9.88501 17.0779 9.89208 17.0424 9.90582 17.0093C9.91956 16.9761 9.9397 16.946 9.96508 16.9206C12.2025 14.6826 15.8436 14.6831 18.0819 16.9206C18.2204 17.0592 18.3517 17.2048 18.4753 17.3568C18.5079 17.3968 18.5284 17.4453 18.5345 17.4966C18.5407 17.5479 18.5322 17.5998 18.51 17.6465C18.4879 17.6931 18.4529 17.7325 18.4093 17.7601C18.3657 17.7877 18.3151 17.8024 18.2635 17.8025Z"
          fill="#464747"/>
    <path d="M26.3118 23.4954C25.5629 23.4954 24.6778 23.3544 23.6844 22.9461C23.6173 22.9184 23.5639 22.8653 23.536 22.7983C23.5081 22.7313 23.5079 22.656 23.5354 22.5889C23.593 22.449 23.7527 22.3834 23.8925 22.44C26.7521 23.6186 28.635 22.3637 28.6531 22.3514C28.7129 22.3127 28.7854 22.2988 28.8553 22.3128C28.9251 22.3268 28.9867 22.3675 29.027 22.4262C29.0673 22.4849 29.0831 22.557 29.071 22.6272C29.0589 22.6974 29.0199 22.7601 28.9623 22.8019C28.9035 22.8425 27.9239 23.4954 26.3118 23.4954Z"
          fill="#464747"/>
    <path d="M27.6869 24.7471C26.8606 24.7471 26.1362 24.2182 25.8831 23.4307C25.5634 22.4368 26.1122 21.3671 27.1071 21.0468C27.5822 20.8946 28.5708 20.7799 29.4078 20.7799C30.7605 20.7799 31.5309 21.0431 31.6969 21.5624C32.0753 22.7379 28.92 24.4455 28.2676 24.6553C28.08 24.716 27.8841 24.747 27.6869 24.7471ZM29.4078 21.3265C28.5425 21.3265 27.6436 21.4487 27.2742 21.5672C26.5669 21.7951 26.1761 22.5564 26.4036 23.2636C26.6262 23.9571 27.3996 24.3601 28.1 24.1353C29.1388 23.8006 31.3451 22.2532 31.1764 21.7295C31.1145 21.5351 30.5343 21.3265 29.4078 21.3265Z"
          fill="#464747"/>
    <path d="M17.0023 34.9926C16.8822 34.9926 16.7616 34.9776 16.6422 34.9472C16.2664 34.8517 15.9501 34.6158 15.7521 34.2826C15.4096 33.7061 15.5997 32.9588 16.1754 32.616C16.2913 32.5464 16.42 32.5006 16.5539 32.4813C16.6877 32.462 16.8241 32.4695 16.955 32.5035C17.0859 32.5364 17.2089 32.595 17.3169 32.6758C17.4249 32.7566 17.5159 32.8581 17.5844 32.9743C17.6027 33.0052 17.6147 33.0393 17.6198 33.0748C17.6249 33.1104 17.6229 33.1465 17.614 33.1813C17.6051 33.216 17.5895 33.2487 17.5679 33.2774C17.5464 33.3061 17.5194 33.3302 17.4886 33.3485C17.4262 33.3853 17.3518 33.3959 17.2816 33.378C17.2115 33.3601 17.1512 33.3152 17.1141 33.253C17.082 33.1988 17.0395 33.1514 16.989 33.1137C16.9385 33.0759 16.8811 33.0485 16.8199 33.0331C16.7586 33.017 16.6947 33.0133 16.632 33.0224C16.5693 33.0315 16.509 33.0531 16.4548 33.0859C16.1379 33.2743 16.0333 33.6859 16.2218 34.003C16.2822 34.1054 16.3624 34.1948 16.4577 34.266C16.5529 34.3372 16.6613 34.3888 16.7767 34.4177C17.011 34.4764 17.2544 34.4418 17.4618 34.3185C18.0302 33.9806 18.218 33.2428 17.8798 32.6743C17.6366 32.2654 17.193 31.9601 16.6931 31.8576C16.3327 31.785 15.7808 31.7844 15.2032 32.2062C15.1447 32.2474 15.0723 32.264 15.0016 32.2524C14.9309 32.2408 14.8677 32.2019 14.8254 32.1441C14.7831 32.0863 14.7652 32.0142 14.7756 31.9433C14.7859 31.8725 14.8237 31.8085 14.8808 31.7652C15.4571 31.3435 16.1392 31.1877 16.8028 31.3222C17.4508 31.4546 18.0292 31.8561 18.3498 32.3946C18.8414 33.2225 18.5686 34.2966 17.7412 34.7883C17.5178 34.9218 17.2625 34.9924 17.0023 34.9926Z"
          fill="#464747"/>
    <path d="M19.1219 3.59397C18.9132 3.59397 18.704 3.5643 18.5 3.50428C17.8976 3.32757 17.3833 2.90265 17.1233 2.36753C16.7218 1.54599 17.0649 0.550129 17.8877 0.148176C18.2197 -0.0135625 18.595 -0.0373516 18.9447 0.0843964C19.2943 0.205051 19.5762 0.454357 19.7375 0.786652C20.0172 1.3621 19.7769 2.05793 19.202 2.33814C18.7152 2.57487 18.1248 2.37204 17.8865 1.88519C17.8707 1.85292 17.8614 1.81787 17.8592 1.78203C17.857 1.74618 17.8619 1.71025 17.8735 1.67628C17.8852 1.64232 17.9034 1.61098 17.9272 1.58406C17.951 1.55714 17.9798 1.53517 18.0121 1.5194C18.0443 1.50362 18.0794 1.49436 18.1152 1.49213C18.1511 1.48991 18.187 1.49477 18.221 1.50643C18.2549 1.51809 18.2863 1.53632 18.3132 1.5601C18.3401 1.58387 18.3621 1.61271 18.3779 1.64497C18.4835 1.86167 18.7451 1.95355 18.9629 1.84643C19.2667 1.69829 19.3937 1.32997 19.2459 1.02571C19.1982 0.926728 19.1313 0.838217 19.0491 0.765318C18.9669 0.692418 18.871 0.636583 18.767 0.601057C18.6632 0.565058 18.5532 0.549922 18.4435 0.556514C18.3337 0.563107 18.2264 0.591299 18.1276 0.639475C17.5757 0.908742 17.3456 1.57682 17.6148 2.12827C17.8089 2.52756 18.1975 2.84571 18.6539 2.97969C18.9832 3.07683 19.4973 3.11928 20.0669 2.77126C20.0975 2.75252 20.1316 2.74 20.167 2.73443C20.2025 2.72886 20.2388 2.73035 20.2737 2.73881C20.3086 2.74727 20.3415 2.76253 20.3705 2.78372C20.3995 2.80492 20.424 2.83162 20.4427 2.86232C20.4614 2.89297 20.4739 2.927 20.4794 2.96247C20.4849 2.99794 20.4834 3.03415 20.4749 3.06903C20.4664 3.10392 20.4512 3.13678 20.43 3.16576C20.4088 3.19473 20.3821 3.21924 20.3514 3.23788C19.9653 3.47359 19.5431 3.59397 19.1219 3.59397Z"
          fill="#464747"/>
    <path d="M4.08886 17.4969C2.82982 17.4969 1.78918 16.7133 1.66826 15.6744C1.55991 14.7333 2.10788 10.8594 3.65861 10.6779C5.20503 10.4988 6.63327 14.1814 6.73874 15.0867C6.87164 16.2422 5.84324 17.3138 4.44652 17.4761C4.32779 17.4898 4.20838 17.4967 4.08886 17.4969ZM3.77044 11.2181C2.76713 11.3326 2.09161 14.5707 2.21117 15.6114C2.30913 16.4498 3.27662 17.0618 4.38376 16.9332C5.481 16.8056 6.294 16.0054 6.19577 15.1497C6.07785 14.1378 4.73718 11.2181 3.77044 11.2181Z"
          fill="#464747"/>
    <path d="M4.11385 19.1411C4.07182 19.1411 4.03034 19.1315 3.99264 19.1129C3.95494 19.0944 3.92203 19.0673 3.89649 19.034C3.87094 19.0006 3.85344 18.9618 3.84535 18.9205C3.83726 18.8793 3.8388 18.8367 3.84984 18.7962C4.34039 16.9862 3.80849 14.026 3.80309 13.9964C3.79659 13.9611 3.79713 13.9249 3.80466 13.8898C3.81219 13.8547 3.82656 13.8214 3.84697 13.7919C3.86737 13.7624 3.89339 13.7372 3.92355 13.7177C3.95371 13.6982 3.98741 13.6849 4.02273 13.6785C4.17243 13.6497 4.31394 13.7498 4.3406 13.8982C4.36384 14.0245 4.90005 17.0112 4.37717 18.9393C4.36153 18.9972 4.32727 19.0483 4.27968 19.0848C4.23208 19.1213 4.1738 19.141 4.11385 19.1411Z"
          fill="#464747"/>
</svg>
