<svg width="35" height="35" viewBox="0 0 35 35" fill="none" xmlns="http://www.w3.org/2000/svg">
    <g clip-path="url(#clip0_2979_11944)">
        <path d="M8.50908 18.2958C7.60708 18.2963 6.72433 18.035 5.96795 17.5436C4.91713 16.8626 4.19615 15.8163 3.93789 14.5971C3.6801 13.3803 3.91382 12.1347 4.59591 11.0895C4.86349 10.6783 5.19403 10.3117 5.57543 10.0032C5.63188 9.95768 5.70406 9.93644 5.77615 9.9441C5.84823 9.95177 5.91433 9.98771 5.95996 10.044C6.00541 10.1005 6.02663 10.1726 6.01898 10.2447C6.01133 10.3168 5.97543 10.3828 5.91915 10.4285C5.58198 10.7008 5.28993 11.0246 5.05378 11.3881C4.45147 12.3108 4.24523 13.4102 4.47259 14.4839C4.70044 15.5598 5.33713 16.4836 6.26525 17.0851C8.17446 18.3229 10.7383 17.781 11.9785 15.8768C11.9981 15.8467 12.0234 15.8207 12.053 15.8004C12.0826 15.7801 12.1159 15.7658 12.151 15.7584C12.1861 15.751 12.2224 15.7506 12.2577 15.7572C12.2929 15.7638 12.3266 15.7774 12.3566 15.797C12.3867 15.8166 12.4126 15.8419 12.4329 15.8715C12.4532 15.9011 12.4674 15.9344 12.4748 15.9695C12.4823 16.0047 12.4827 16.0409 12.4761 16.0762C12.4695 16.1114 12.456 16.1451 12.4364 16.1751C11.5419 17.5481 10.0402 18.2958 8.50908 18.2958ZM29.4329 12.7882C29.3914 12.7882 29.3504 12.7788 29.3131 12.7607C29.2758 12.7425 29.2431 12.7161 29.2176 12.6835C29.192 12.6508 29.1742 12.6127 29.1656 12.5722C29.1569 12.5316 29.1576 12.4896 29.1676 12.4493C29.3175 11.8441 29.3272 11.2243 29.1959 10.6068C28.7242 8.38591 26.5291 6.96206 24.3 7.43271C24.1559 7.46395 24.0075 7.3703 23.9761 7.22196C23.9611 7.15105 23.9748 7.07709 24.0144 7.01634C24.0539 6.95559 24.1159 6.91302 24.1868 6.898C26.7106 6.36487 29.1959 7.97767 29.7307 10.4932C29.879 11.1923 29.8684 11.8949 29.6981 12.5806C29.6834 12.6398 29.6493 12.6924 29.6012 12.7301C29.5532 12.7677 29.4939 12.7882 29.4329 12.7882Z"
              fill="#464747"/>
        <path d="M26.8244 7.66709C26.7868 7.6672 26.7496 7.65955 26.7152 7.64464C26.6807 7.62972 26.6496 7.60785 26.624 7.5804C26.5984 7.55295 26.5787 7.5205 26.5661 7.48509C26.5536 7.44967 26.5485 7.41206 26.5511 7.37459C26.5773 7.00449 26.5496 6.62475 26.469 6.24556C26.0202 4.13353 24.0615 2.74228 21.921 3.0123C21.7732 3.02782 21.6344 2.92507 21.6157 2.77503C21.6068 2.70317 21.6267 2.6307 21.6711 2.57352C21.7155 2.51634 21.7808 2.47913 21.8527 2.47007C24.2873 2.16615 26.4956 3.74101 27.0038 6.13181C27.095 6.5609 27.126 6.99184 27.0966 7.41293C27.0918 7.48187 27.061 7.54641 27.0105 7.59357C26.96 7.64073 26.8935 7.667 26.8244 7.66709ZM13.2554 19.3493C11.9113 19.3493 10.5283 19.0126 9.42549 18.1032C9.39777 18.0804 9.37482 18.0524 9.35795 18.0207C9.34108 17.989 9.33063 17.9543 9.32719 17.9186C9.32374 17.8829 9.32738 17.8468 9.33789 17.8125C9.3484 17.7782 9.36558 17.7463 9.38844 17.7187C9.41122 17.6909 9.43926 17.668 9.47093 17.6511C9.5026 17.6343 9.53728 17.6238 9.573 17.6203C9.60871 17.6169 9.64476 17.6205 9.67907 17.631C9.71338 17.6415 9.74529 17.6587 9.77296 17.6815C11.5042 19.1086 14.238 19.0024 16.1793 18.2633C17.3563 17.8152 17.9481 17.2506 18.0001 16.9154C18.0234 16.7663 18.1667 16.666 18.3119 16.6873C18.3835 16.6984 18.4478 16.7375 18.4907 16.796C18.5335 16.8544 18.5514 16.9275 18.5403 16.9992C18.442 17.6313 17.6322 18.2947 16.3739 18.7739C15.4891 19.1107 14.386 19.3493 13.2554 19.3493Z"
              fill="#464747"/>
        <path d="M11.251 7.71665C11.1884 7.71653 11.1278 7.69499 11.0792 7.65563C11.0306 7.61627 10.9969 7.56145 10.9838 7.5003C10.6393 5.88004 10.9454 4.22486 11.8457 2.83942C12.7495 1.44912 14.1456 0.493391 15.7762 0.148587C19.132 -0.560915 22.4365 1.58366 23.1479 4.92684C23.1629 4.99771 23.1493 5.07167 23.1098 5.13246C23.0704 5.19325 23.0085 5.23591 22.9376 5.25107C22.7936 5.28251 22.6447 5.18859 22.6132 5.04052C21.9648 1.99142 18.9473 0.0359989 15.8894 0.683362C14.4015 0.997952 13.1282 1.86947 12.3042 3.13719C11.4831 4.4002 11.2043 5.90916 11.5187 7.38661C11.5336 7.45751 11.5199 7.53145 11.4804 7.59221C11.4409 7.65298 11.379 7.69561 11.3081 7.71077C11.2893 7.71468 11.2702 7.71665 11.251 7.71665ZM21.8074 19.0419C20.3585 19.0419 18.9928 18.5279 17.8665 17.5406C17.812 17.4929 17.7787 17.4254 17.774 17.3531C17.7692 17.2808 17.7934 17.2095 17.8411 17.155C17.9407 17.0411 18.1128 17.0304 18.227 17.1297C19.5607 18.299 21.2636 18.7376 23.0248 18.3657C23.8936 18.181 24.6824 17.8124 25.3692 17.27C25.3974 17.2478 25.4296 17.2313 25.4642 17.2215C25.4987 17.2117 25.5348 17.2088 25.5704 17.213C25.6061 17.2172 25.6405 17.2284 25.6718 17.2459C25.7032 17.2634 25.7307 17.2869 25.7529 17.3151C25.7978 17.3721 25.8182 17.4445 25.8097 17.5165C25.8012 17.5885 25.7645 17.6542 25.7076 17.6991C24.9546 18.2936 24.09 18.6981 23.1379 18.9004C22.6901 18.9949 22.245 19.0419 21.8074 19.0419Z"
              fill="#464747"/>
        <path d="M6.81931 13.3678C6.7757 13.3679 6.73271 13.3575 6.69395 13.3375C6.65518 13.3175 6.62175 13.2886 6.59646 13.2531C6.10338 12.5598 5.76261 11.7825 5.58385 10.9425C5.23939 9.32116 5.54571 7.66522 6.44655 6.27979C7.35033 4.88983 8.74588 3.93479 10.376 3.59032C10.8001 3.50117 11.2322 3.4552 11.6656 3.45312H11.6669C11.7387 3.45408 11.8072 3.4832 11.8576 3.5342C11.9081 3.58521 11.9365 3.65401 11.9366 3.72575C11.9368 3.7975 11.9087 3.86643 11.8585 3.91767C11.8083 3.96892 11.74 3.99837 11.6682 3.99966C11.272 4.00145 10.8769 4.04348 10.4891 4.1251C9.00175 4.43914 7.72863 5.31038 6.90462 6.57763C6.08328 7.84084 5.80417 9.35056 6.11849 10.8288C6.28153 11.5952 6.59208 12.3042 7.04148 12.9361C7.07054 12.9769 7.08781 13.025 7.0914 13.075C7.09499 13.125 7.08475 13.175 7.06182 13.2196C7.03888 13.2642 7.00412 13.3016 6.96135 13.3277C6.91858 13.3539 6.86944 13.3677 6.81931 13.3678ZM27.175 17.9945C26.2134 17.9945 25.4673 17.749 25.4502 17.7431C25.3818 17.7198 25.3253 17.6703 25.2933 17.6054C25.2613 17.5405 25.2563 17.4656 25.2795 17.3971C25.3286 17.2537 25.4849 17.1774 25.6258 17.2258C25.7635 17.2716 28.996 18.3257 30.3301 15.5876C31.3286 13.5372 29.3642 11.3286 29.3439 11.3065C29.2953 11.2527 29.2701 11.1818 29.2738 11.1094C29.2776 11.0371 29.3098 10.9691 29.3636 10.9206C29.3902 10.8964 29.4213 10.8778 29.4551 10.8657C29.4888 10.8536 29.5247 10.8483 29.5605 10.8501C29.5964 10.8518 29.6315 10.8607 29.664 10.8761C29.6964 10.8915 29.7255 10.9131 29.7495 10.9398C29.8408 11.0412 31.9797 13.448 30.8211 15.8269C29.9571 17.6007 28.3934 17.9945 27.175 17.9945ZM8.48195 27.8828C7.1259 27.8828 6.02279 26.7797 6.02279 25.4236C6.02279 24.6103 6.43773 23.8449 7.11578 23.3897V23.2376C7.11577 23.2017 7.12282 23.1661 7.13655 23.133C7.15027 23.0998 7.1704 23.0697 7.19578 23.0443C7.22115 23.019 7.25128 22.9988 7.28444 22.9851C7.3176 22.9714 7.35313 22.9644 7.38902 22.9644H9.57494C9.61083 22.9644 9.64636 22.9714 9.67952 22.9851C9.71268 22.9988 9.74281 23.019 9.76818 23.0443C9.79356 23.0697 9.81369 23.0998 9.82741 23.133C9.84114 23.1661 9.84819 23.2017 9.84818 23.2376V23.3897C10.5262 23.8444 10.9412 24.6102 10.9412 25.4236C10.9412 26.7797 9.83806 27.8828 8.48195 27.8828ZM7.66225 23.5109V23.5408C7.66221 23.5886 7.64965 23.6356 7.62582 23.6771C7.60199 23.7186 7.56772 23.7531 7.52642 23.7773C6.92711 24.1258 6.56932 24.7411 6.56932 25.4236C6.56932 26.4782 7.4275 27.3363 8.48202 27.3363C9.53659 27.3363 10.3947 26.4781 10.3947 25.4236C10.3947 24.7411 10.0368 24.1252 9.43754 23.7773C9.39625 23.7531 9.36199 23.7186 9.33817 23.6771C9.31434 23.6356 9.30177 23.5886 9.30171 23.5408V23.5109H7.66225Z"
              fill="#464747"/>
        <path d="M9.57488 23.5109H7.38895C7.35306 23.5109 7.31752 23.5039 7.28436 23.4901C7.25119 23.4764 7.22106 23.4563 7.19569 23.4309C7.17031 23.4055 7.15019 23.3754 7.13646 23.3422C7.12274 23.309 7.1157 23.2735 7.11572 23.2376V21.5981C7.11572 21.5255 7.1445 21.4562 7.19577 21.405L7.74224 20.8585C7.7676 20.8331 7.79771 20.813 7.83086 20.7992C7.86401 20.7855 7.89954 20.7784 7.93542 20.7784H9.02835C9.06423 20.7784 9.09977 20.7855 9.13292 20.7992C9.16607 20.813 9.19618 20.8331 9.22153 20.8585L9.768 21.405C9.79338 21.4303 9.81351 21.4604 9.82725 21.4936C9.84099 21.5267 9.84805 21.5623 9.84805 21.5981V23.2375C9.84809 23.2734 9.84106 23.309 9.82735 23.3422C9.81364 23.3753 9.79352 23.4055 9.76815 23.4309C9.74278 23.4563 9.71265 23.4764 9.67949 23.4901C9.64632 23.5039 9.61078 23.5109 9.57488 23.5109ZM7.66219 22.9644H9.30158V21.7113L8.91522 21.325H8.04855L7.66219 21.7113V22.9644Z"
              fill="#464747"/>
        <path d="M9.57488 22.4178H7.38895C7.35307 22.4178 7.31752 22.4108 7.28436 22.3971C7.2512 22.3833 7.22107 22.3632 7.19569 22.3378C7.17031 22.3125 7.15019 22.2823 7.13647 22.2492C7.12274 22.216 7.1157 22.1805 7.11572 22.1446C7.1157 22.1087 7.12276 22.0731 7.13648 22.04C7.15021 22.0068 7.17033 21.9767 7.19571 21.9513C7.22109 21.926 7.25121 21.9058 7.28437 21.8921C7.31753 21.8784 7.35307 21.8713 7.38895 21.8713H9.57488C9.61077 21.8713 9.64631 21.8784 9.67947 21.8921C9.71262 21.9058 9.74275 21.926 9.76813 21.9513C9.7935 21.9767 9.81363 22.0068 9.82735 22.04C9.84108 22.0731 9.84813 22.1087 9.84811 22.1446C9.84814 22.1805 9.84109 22.216 9.82737 22.2492C9.81365 22.2823 9.79352 22.3125 9.76815 22.3378C9.74277 22.3632 9.71264 22.3833 9.67948 22.3971C9.64631 22.4108 9.61077 22.4178 9.57488 22.4178ZM8.48188 24.6038C8.446 24.6038 8.41047 24.5968 8.37732 24.583C8.34416 24.5693 8.31405 24.5491 8.2887 24.5237L7.74224 23.9773C7.63546 23.8705 7.63546 23.6976 7.74224 23.5909C7.84901 23.4842 8.02189 23.4841 8.1286 23.5909L8.48188 23.9442L8.83517 23.5909C8.94194 23.4841 9.11482 23.4841 9.22153 23.5909C9.32824 23.6977 9.32831 23.8706 9.22153 23.9773L8.67507 24.5237C8.64973 24.5492 8.61962 24.5693 8.58646 24.583C8.55331 24.5968 8.51777 24.6038 8.48188 24.6038Z"
              fill="#464747"/>
        <path d="M7.93534 25.6967C7.89945 25.6968 7.86391 25.6897 7.83075 25.676C7.79759 25.6623 7.76745 25.6421 7.74208 25.6168C7.7167 25.5914 7.69657 25.5612 7.68285 25.5281C7.66913 25.4949 7.66208 25.4594 7.66211 25.4235V23.7841C7.66208 23.7482 7.66913 23.7127 7.68285 23.6795C7.69657 23.6463 7.7167 23.6162 7.74208 23.5908C7.76745 23.5655 7.79759 23.5453 7.83075 23.5316C7.86391 23.5179 7.89945 23.5108 7.93534 23.5109C7.97123 23.5108 8.00677 23.5179 8.03994 23.5316C8.0731 23.5453 8.10323 23.5655 8.12861 23.5908C8.15398 23.6162 8.17411 23.6463 8.18783 23.6795C8.20155 23.7127 8.2086 23.7482 8.20857 23.7841V25.4235C8.2086 25.4594 8.20155 25.4949 8.18783 25.5281C8.17411 25.5612 8.15398 25.5914 8.12861 25.6168C8.10323 25.6421 8.0731 25.6623 8.03994 25.676C8.00677 25.6897 7.97123 25.6968 7.93534 25.6967ZM9.02827 25.6967C8.99238 25.6968 8.95684 25.6897 8.92368 25.676C8.89052 25.6623 8.86038 25.6421 8.83501 25.6168C8.80963 25.5914 8.7895 25.5612 8.77578 25.5281C8.76206 25.4949 8.75501 25.4594 8.75504 25.4235V23.7841C8.75501 23.7482 8.76206 23.7127 8.77578 23.6795C8.7895 23.6463 8.80963 23.6162 8.83501 23.5908C8.86038 23.5655 8.89052 23.5453 8.92368 23.5316C8.95684 23.5179 8.99238 23.5108 9.02827 23.5109C9.06416 23.5108 9.0997 23.5179 9.13287 23.5316C9.16603 23.5453 9.19616 23.5655 9.22154 23.5908C9.24691 23.6162 9.26704 23.6463 9.28076 23.6795C9.29448 23.7127 9.30153 23.7482 9.3015 23.7841V25.4235C9.30153 25.4594 9.29448 25.4949 9.28076 25.5281C9.26704 25.5612 9.24691 25.5914 9.22154 25.6168C9.19616 25.6421 9.16603 25.6623 9.13287 25.676C9.0997 25.6897 9.06416 25.6968 9.02827 25.6967Z"
              fill="#464747"/>
        <path d="M8.48197 21.3249C8.44609 21.3249 8.41055 21.3178 8.37739 21.3041C8.34423 21.2904 8.3141 21.2703 8.28873 21.2449C8.26335 21.2195 8.24323 21.1894 8.2295 21.1562C8.21578 21.1231 8.20872 21.0875 8.20874 21.0516V18.8656C8.20872 18.8298 8.21578 18.7942 8.2295 18.7611C8.24323 18.7279 8.26335 18.6978 8.28873 18.6724C8.3141 18.647 8.34423 18.6269 8.37739 18.6132C8.41055 18.5994 8.44609 18.5924 8.48197 18.5924C8.51786 18.5924 8.5534 18.5994 8.58656 18.6132C8.61971 18.6269 8.64984 18.647 8.67522 18.6724C8.70059 18.6978 8.72072 18.7279 8.73444 18.7611C8.74817 18.7942 8.75522 18.8298 8.7552 18.8656V21.0516C8.75523 21.0875 8.74818 21.1231 8.73446 21.1562C8.72074 21.1894 8.70061 21.2195 8.67524 21.2449C8.64986 21.2703 8.61973 21.2904 8.58657 21.3041C8.5534 21.3178 8.51786 21.3249 8.48197 21.3249Z"
              fill="#464747"/>
        <path d="M26.5159 26.7897C25.1598 26.7897 24.0566 25.6866 24.0566 24.3306C24.0566 23.5173 24.4719 22.7519 25.1496 22.2967V22.1446C25.1496 22.1087 25.1567 22.0731 25.1704 22.04C25.1841 22.0068 25.2042 21.9767 25.2296 21.9513C25.255 21.926 25.2851 21.9058 25.3183 21.8921C25.3514 21.8784 25.387 21.8713 25.4229 21.8713H27.6088C27.6447 21.8713 27.6802 21.8784 27.7134 21.8921C27.7466 21.9058 27.7767 21.9259 27.8021 21.9513C27.8275 21.9767 27.8476 22.0068 27.8613 22.04C27.8751 22.0731 27.8821 22.1087 27.8821 22.1446V22.2967C28.5598 22.7514 28.975 23.5172 28.975 24.3306C28.975 25.6866 27.872 26.7897 26.5159 26.7897ZM25.6961 22.4178V22.4477C25.6961 22.5449 25.6444 22.635 25.56 22.6841C24.9607 23.0327 24.6032 23.648 24.6032 24.3306C24.6032 25.3851 25.4614 26.2432 26.5158 26.2432C27.5704 26.2432 28.4285 25.3851 28.4285 24.3306C28.4285 23.648 28.071 23.0321 27.4716 22.6841C27.4302 22.6601 27.3959 22.6256 27.372 22.5841C27.3482 22.5426 27.3356 22.4956 27.3356 22.4477V22.4178H25.6961Z"
              fill="#464747"/>
        <path d="M27.6088 22.4178H25.4229C25.387 22.4178 25.3515 22.4108 25.3183 22.3971C25.2851 22.3834 25.255 22.3632 25.2296 22.3378C25.2042 22.3125 25.1841 22.2823 25.1704 22.2492C25.1567 22.216 25.1496 22.1805 25.1497 22.1446V20.5052C25.1496 20.4693 25.1567 20.4338 25.1704 20.4006C25.1842 20.3675 25.2043 20.3374 25.2297 20.312L25.7762 19.7655C25.8015 19.7402 25.8316 19.72 25.8648 19.7063C25.8979 19.6925 25.9335 19.6854 25.9694 19.6854H27.0623C27.1349 19.6854 27.2043 19.7143 27.2555 19.7655L27.8019 20.312C27.8273 20.3374 27.8475 20.3675 27.8612 20.4006C27.875 20.4338 27.8821 20.4693 27.8821 20.5052V22.1446C27.8821 22.1805 27.875 22.216 27.8613 22.2492C27.8476 22.2824 27.8275 22.3125 27.8021 22.3379C27.7767 22.3632 27.7466 22.3834 27.7134 22.3971C27.6803 22.4108 27.6447 22.4179 27.6088 22.4178ZM25.6961 21.8714H27.3356V20.6183L26.9492 20.232H26.0825L25.6961 20.6183V21.8714Z"
              fill="#464747"/>
        <path d="M27.6088 21.3249H25.4229C25.2719 21.3249 25.1497 21.2027 25.1497 21.0517C25.1497 20.9007 25.2719 20.7784 25.4229 20.7784H27.6088C27.7599 20.7784 27.8821 20.9007 27.8821 21.0517C27.8821 21.2027 27.7599 21.3249 27.6088 21.3249ZM26.5159 23.5109C26.48 23.5109 26.4445 23.5039 26.4113 23.4901C26.3781 23.4764 26.348 23.4562 26.3227 23.4308L25.7762 22.8843C25.7509 22.859 25.7307 22.8288 25.717 22.7957C25.7033 22.7625 25.6962 22.727 25.6962 22.6911C25.6962 22.6553 25.7033 22.6197 25.717 22.5866C25.7307 22.5534 25.7509 22.5233 25.7762 22.498C25.8016 22.4726 25.8317 22.4525 25.8649 22.4387C25.898 22.425 25.9335 22.4179 25.9694 22.4179C26.0053 22.4179 26.0408 22.425 26.074 22.4387C26.1071 22.4525 26.1372 22.4726 26.1626 22.498L26.5159 22.8513L26.8692 22.498C26.8945 22.4726 26.9247 22.4525 26.9578 22.4387C26.9909 22.425 27.0265 22.4179 27.0624 22.4179C27.0982 22.4179 27.1338 22.425 27.1669 22.4387C27.2001 22.4525 27.2302 22.4726 27.2555 22.498C27.2809 22.5233 27.3011 22.5534 27.3148 22.5866C27.3286 22.6197 27.3356 22.6553 27.3356 22.6911C27.3356 22.727 27.3286 22.7626 27.3148 22.7957C27.3011 22.8288 27.2809 22.859 27.2555 22.8843L26.7091 23.4308C26.6837 23.4562 26.6536 23.4764 26.6205 23.4901C26.5873 23.5039 26.5518 23.5109 26.5159 23.5109Z"
              fill="#464747"/>
        <path d="M25.9695 24.6039C25.9336 24.6039 25.8981 24.5969 25.8649 24.5831C25.8318 24.5694 25.8017 24.5493 25.7763 24.5239C25.7509 24.4985 25.7308 24.4684 25.7171 24.4352C25.7033 24.4021 25.6963 24.3666 25.6963 24.3307V22.6912C25.6963 22.5402 25.8185 22.418 25.9695 22.418C26.1205 22.418 26.2428 22.5402 26.2428 22.6912V24.3307C26.2428 24.3665 26.2357 24.4021 26.222 24.4352C26.2082 24.4684 26.1881 24.4985 26.1627 24.5239C26.1374 24.5493 26.1072 24.5694 26.0741 24.5831C26.0409 24.5968 26.0054 24.6039 25.9695 24.6039ZM27.0625 24.6039C27.0266 24.6039 26.991 24.5969 26.9579 24.5831C26.9247 24.5694 26.8946 24.5493 26.8692 24.5239C26.8438 24.4985 26.8237 24.4684 26.81 24.4352C26.7963 24.4021 26.7892 24.3666 26.7892 24.3307V22.6912C26.7892 22.6553 26.7963 22.6198 26.81 22.5866C26.8237 22.5535 26.8438 22.5233 26.8692 22.498C26.8946 22.4726 26.9247 22.4525 26.9579 22.4387C26.991 22.425 27.0266 22.418 27.0625 22.418C27.0983 22.4179 27.1339 22.425 27.1671 22.4387C27.2002 22.4524 27.2304 22.4726 27.2557 22.4979C27.2811 22.5233 27.3013 22.5534 27.315 22.5866C27.3287 22.6198 27.3358 22.6553 27.3358 22.6912V24.3307C27.3358 24.3666 27.3287 24.4021 27.315 24.4353C27.3013 24.4684 27.2811 24.4986 27.2557 24.5239C27.2304 24.5493 27.2002 24.5694 27.1671 24.5832C27.1339 24.5969 27.0983 24.6039 27.0625 24.6039Z"
              fill="#464747"/>
        <path d="M26.5159 20.232C26.48 20.232 26.4445 20.225 26.4113 20.2112C26.3782 20.1975 26.348 20.1774 26.3227 20.152C26.2973 20.1266 26.2772 20.0965 26.2634 20.0633C26.2497 20.0302 26.2427 19.9946 26.2427 19.9588V18.8658C26.2427 18.8299 26.2497 18.7943 26.2634 18.7612C26.2772 18.728 26.2973 18.6979 26.3227 18.6725C26.348 18.6471 26.3782 18.627 26.4113 18.6133C26.4445 18.5996 26.48 18.5925 26.5159 18.5925C26.5518 18.5925 26.5873 18.5996 26.6205 18.6133C26.6537 18.627 26.6838 18.6471 26.7092 18.6725C26.7346 18.6979 26.7547 18.728 26.7684 18.7612C26.7821 18.7943 26.7892 18.8299 26.7891 18.8658V19.9588C26.7892 19.9946 26.7821 20.0302 26.7684 20.0634C26.7547 20.0965 26.7346 20.1266 26.7092 20.152C26.6838 20.1774 26.6537 20.1975 26.6205 20.2112C26.5873 20.225 26.5518 20.232 26.5159 20.232Z"
              fill="#464747"/>
        <path d="M17.2256 32.2546C15.8695 32.2546 14.7664 31.1515 14.7664 29.7953C14.7664 28.9821 15.1813 28.2167 15.8593 27.7615V27.6094C15.8593 27.5735 15.8663 27.538 15.88 27.5048C15.8938 27.4717 15.9139 27.4415 15.9393 27.4162C15.9647 27.3908 15.9948 27.3707 16.0279 27.3569C16.0611 27.3432 16.0966 27.3362 16.1325 27.3362H18.3185C18.3544 27.3362 18.3899 27.3432 18.4231 27.3569C18.4563 27.3707 18.4864 27.3908 18.5118 27.4162C18.5371 27.4415 18.5573 27.4717 18.571 27.5048C18.5847 27.538 18.5918 27.5735 18.5917 27.6094V27.7615C19.2695 28.2162 19.6847 28.982 19.6847 29.7953C19.6847 31.1515 18.5816 32.2546 17.2256 32.2546ZM16.4059 27.8827V27.9126C16.4058 27.9604 16.3933 28.0074 16.3695 28.0489C16.3456 28.0904 16.3114 28.1249 16.2701 28.149C15.6707 28.4975 15.3129 29.1129 15.3129 29.7954C15.3129 30.85 16.1711 31.7081 17.2256 31.7081C18.2801 31.7081 19.1382 30.8499 19.1382 29.7954C19.1382 29.1129 18.7807 28.497 18.1814 28.149C18.14 28.125 18.1057 28.0905 18.0818 28.049C18.0579 28.0075 18.0453 27.9605 18.0453 27.9126V27.8827H16.4059Z"
              fill="#464747"/>
        <path d="M18.3186 27.8828H16.1326C16.0967 27.8828 16.0612 27.8757 16.028 27.862C15.9949 27.8483 15.9647 27.8282 15.9394 27.8028C15.914 27.7774 15.8939 27.7473 15.8801 27.7141C15.8664 27.681 15.8594 27.6454 15.8594 27.6096V25.9702C15.8594 25.8976 15.8882 25.8282 15.9394 25.777L16.4859 25.2304C16.5113 25.2051 16.5414 25.1849 16.5745 25.1712C16.6077 25.1575 16.6432 25.1504 16.6791 25.1504H17.7721C17.8447 25.1504 17.914 25.1792 17.9653 25.2304L18.5117 25.777C18.5371 25.8023 18.5572 25.8325 18.571 25.8656C18.5847 25.8987 18.5918 25.9343 18.5918 25.9702V27.6096C18.5918 27.6454 18.5847 27.681 18.571 27.7141C18.5573 27.7473 18.5372 27.7774 18.5118 27.8028C18.4865 27.8282 18.4563 27.8483 18.4232 27.862C18.39 27.8757 18.3545 27.8828 18.3186 27.8828ZM16.4059 27.3363H18.0454V26.0832L17.659 25.6969H16.7923L16.4059 26.0832V27.3363Z"
              fill="#464747"/>
        <path d="M18.3186 26.7898H16.1326C16.0967 26.7898 16.0612 26.7827 16.028 26.769C15.9949 26.7553 15.9647 26.7352 15.9394 26.7098C15.914 26.6844 15.8939 26.6543 15.8801 26.6212C15.8664 26.588 15.8594 26.5525 15.8594 26.5166C15.8593 26.4807 15.8664 26.4451 15.8801 26.412C15.8938 26.3788 15.914 26.3487 15.9393 26.3233C15.9647 26.2979 15.9948 26.2778 16.028 26.2641C16.0612 26.2503 16.0967 26.2433 16.1326 26.2433H18.3186C18.3545 26.2433 18.39 26.2503 18.4232 26.2641C18.4564 26.2778 18.4865 26.2979 18.5119 26.3233C18.5372 26.3487 18.5574 26.3788 18.5711 26.412C18.5848 26.4451 18.5919 26.4807 18.5918 26.5166C18.5918 26.5525 18.5848 26.588 18.5711 26.6211C18.5573 26.6543 18.5372 26.6844 18.5118 26.7098C18.4864 26.7352 18.4563 26.7553 18.4232 26.769C18.39 26.7827 18.3545 26.7898 18.3186 26.7898ZM17.2256 28.9757C17.1897 28.9757 17.1542 28.9687 17.121 28.955C17.0879 28.9412 17.0578 28.9211 17.0324 28.8956L16.4859 28.3492C16.4605 28.3238 16.4404 28.2937 16.4267 28.2605C16.4129 28.2274 16.4059 28.1919 16.4059 28.156C16.4059 28.1201 16.4129 28.0846 16.4267 28.0514C16.4404 28.0183 16.4605 27.9882 16.4859 27.9628C16.5113 27.9374 16.5414 27.9173 16.5745 27.9036C16.6077 27.8898 16.6432 27.8828 16.6791 27.8828C16.7149 27.8828 16.7505 27.8898 16.7836 27.9036C16.8168 27.9173 16.8469 27.9374 16.8723 27.9628L17.2255 28.3161L17.5788 27.9628C17.6042 27.9374 17.6343 27.9173 17.6675 27.9036C17.7006 27.8898 17.7361 27.8828 17.772 27.8828C17.8079 27.8828 17.8434 27.8898 17.8766 27.9036C17.9097 27.9173 17.9398 27.9374 17.9652 27.9628C17.9906 27.9882 18.0107 28.0183 18.0244 28.0514C18.0381 28.0846 18.0452 28.1201 18.0452 28.156C18.0452 28.1919 18.0381 28.2274 18.0244 28.2605C18.0107 28.2937 17.9906 28.3238 17.9652 28.3492L17.4187 28.8956C17.3934 28.9211 17.3633 28.9412 17.3301 28.955C17.297 28.9687 17.2615 28.9757 17.2256 28.9757Z"
              fill="#464747"/>
        <path d="M16.6792 30.0687C16.6433 30.0688 16.6078 30.0617 16.5746 30.048C16.5415 30.0342 16.5113 30.0141 16.486 29.9887C16.4606 29.9633 16.4405 29.9332 16.4267 29.9C16.413 29.8669 16.406 29.8313 16.406 29.7954V28.156C16.406 28.005 16.5282 27.8828 16.6792 27.8828C16.8302 27.8828 16.9525 28.005 16.9525 28.156V29.7954C16.9525 29.8313 16.9454 29.8669 16.9317 29.9C16.918 29.9332 16.8979 29.9633 16.8725 29.9887C16.8471 30.0141 16.817 30.0342 16.7838 30.048C16.7507 30.0617 16.7151 30.0688 16.6792 30.0687ZM17.7722 30.0687C17.7363 30.0688 17.7007 30.0617 17.6676 30.048C17.6344 30.0342 17.6043 30.0141 17.5789 29.9887C17.5535 29.9633 17.5334 29.9332 17.5197 29.9C17.506 29.8669 17.4989 29.8313 17.4989 29.7954V28.156C17.4989 28.005 17.6212 27.8828 17.7722 27.8828C17.9232 27.8828 18.0454 28.005 18.0454 28.156V29.7954C18.0454 29.8313 18.0384 29.8669 18.0247 29.9C18.0109 29.9332 17.9908 29.9633 17.9654 29.9887C17.9401 30.0141 17.9099 30.0342 17.8768 30.048C17.8436 30.0617 17.8081 30.0688 17.7722 30.0687Z"
              fill="#464747"/>
        <path d="M17.2257 25.6967C17.1898 25.6968 17.1543 25.6897 17.1211 25.676C17.0879 25.6623 17.0578 25.6421 17.0324 25.6168C17.007 25.5914 16.9869 25.5613 16.9732 25.5281C16.9594 25.4949 16.9524 25.4594 16.9524 25.4235V18.8656C16.9524 18.8297 16.9594 18.7942 16.9732 18.761C16.9869 18.7279 17.007 18.6977 17.0324 18.6724C17.0578 18.647 17.0879 18.6269 17.1211 18.6132C17.1543 18.5994 17.1898 18.5924 17.2257 18.5924C17.2616 18.5924 17.2971 18.5994 17.3303 18.6132C17.3634 18.6269 17.3936 18.647 17.4189 18.6724C17.4443 18.6978 17.4644 18.7279 17.4782 18.7611C17.4919 18.7942 17.4989 18.8298 17.4989 18.8656V25.4235C17.499 25.4594 17.4919 25.4949 17.4782 25.5281C17.4645 25.5612 17.4443 25.5914 17.419 25.6168C17.3936 25.6421 17.3634 25.6623 17.3303 25.676C17.2971 25.6897 17.2616 25.6968 17.2257 25.6967Z"
              fill="#464747"/>
        <path d="M22.1441 30.0682H20.5046C20.4687 30.0682 20.4332 30.0612 20.4 30.0474C20.3669 30.0337 20.3367 30.0136 20.3114 29.9882C20.286 29.9628 20.2659 29.9327 20.2522 29.8995C20.2384 29.8663 20.2314 29.8308 20.2314 29.7949C20.2314 29.759 20.2385 29.7235 20.2522 29.6903C20.2659 29.6572 20.286 29.627 20.3114 29.6017C20.3368 29.5763 20.3669 29.5562 20.4 29.5425C20.4332 29.5287 20.4687 29.5217 20.5046 29.5217H22.1441C22.18 29.5217 22.2155 29.5287 22.2486 29.5425C22.2818 29.5562 22.3119 29.5763 22.3373 29.6017C22.3627 29.627 22.3828 29.6572 22.3965 29.6903C22.4103 29.7235 22.4173 29.759 22.4173 29.7949C22.4173 29.8308 22.4103 29.8663 22.3966 29.8995C22.3828 29.9327 22.3627 29.9628 22.3373 29.9882C22.312 30.0136 22.2818 30.0337 22.2487 30.0474C22.2155 30.0612 22.18 30.0682 22.1441 30.0682Z"
              fill="#464747"/>
        <path d="M13.9466 30.0682H12.3072C12.2713 30.0682 12.2357 30.0612 12.2026 30.0474C12.1694 30.0337 12.1393 30.0136 12.1139 29.9882C12.0885 29.9628 12.0684 29.9327 12.0547 29.8995C12.041 29.8663 12.0339 29.8308 12.0339 29.7949C12.0339 29.759 12.041 29.7235 12.0547 29.6903C12.0684 29.6572 12.0886 29.627 12.1139 29.6017C12.1393 29.5763 12.1694 29.5562 12.2026 29.5425C12.2357 29.5287 12.2713 29.5217 12.3072 29.5217H13.9466C13.9825 29.5217 14.0181 29.5287 14.0512 29.5425C14.0844 29.5562 14.1145 29.5763 14.1399 29.6017C14.1652 29.627 14.1854 29.6572 14.1991 29.6903C14.2128 29.7235 14.2199 29.759 14.2199 29.7949C14.2199 29.8308 14.2128 29.8663 14.1991 29.8995C14.1854 29.9327 14.1653 29.9628 14.1399 29.9882C14.1145 30.0136 14.0844 30.0337 14.0512 30.0474C14.0181 30.0612 13.9825 30.0682 13.9466 30.0682Z"
              fill="#464747"/>
        <path d="M13.7476 33.5461C13.7118 33.5461 13.6762 33.5391 13.6431 33.5253C13.6099 33.5116 13.5798 33.4914 13.5545 33.466C13.5291 33.4407 13.5089 33.4105 13.4952 33.3774C13.4814 33.3442 13.4744 33.3087 13.4744 33.2728C13.4744 33.2369 13.4814 33.2014 13.4952 33.1683C13.5089 33.1351 13.5291 33.105 13.5545 33.0796L14.7141 31.9205C14.7395 31.8952 14.7696 31.875 14.8027 31.8613C14.8359 31.8475 14.8714 31.8405 14.9073 31.8405C14.9432 31.8405 14.9787 31.8475 15.0119 31.8613C15.045 31.875 15.0751 31.8952 15.1005 31.9205C15.1259 31.9459 15.146 31.976 15.1597 32.0092C15.1735 32.0423 15.1806 32.0778 15.1806 32.1137C15.1806 32.1496 15.1735 32.1851 15.1597 32.2183C15.146 32.2514 15.1259 32.2816 15.1005 32.3069L13.9408 33.466C13.9155 33.4914 13.8854 33.5116 13.8522 33.5254C13.8191 33.5391 13.7835 33.5461 13.7476 33.5461Z"
              fill="#464747"/>
        <path d="M17.2257 34.9871C17.1898 34.9871 17.1543 34.9801 17.1211 34.9663C17.0879 34.9526 17.0578 34.9325 17.0324 34.9071C17.007 34.8817 16.9869 34.8516 16.9732 34.8184C16.9594 34.7853 16.9524 34.7497 16.9524 34.7138V33.0744C16.9524 33.0385 16.9594 33.003 16.9731 32.9698C16.9869 32.9367 17.007 32.9065 17.0324 32.8811C17.0578 32.8558 17.0879 32.8356 17.1211 32.8219C17.1542 32.8082 17.1898 32.8011 17.2257 32.8011C17.2616 32.8011 17.2971 32.8082 17.3303 32.8219C17.3635 32.8356 17.3936 32.8558 17.419 32.8812C17.4443 32.9065 17.4645 32.9367 17.4782 32.9698C17.4919 33.003 17.499 33.0386 17.4989 33.0744V34.7138C17.4989 34.7497 17.4919 34.7853 17.4781 34.8184C17.4644 34.8516 17.4443 34.8817 17.4189 34.9071C17.3935 34.9324 17.3634 34.9526 17.3303 34.9663C17.2971 34.98 17.2616 34.9871 17.2257 34.9871Z"
              fill="#464747"/>
        <path d="M20.7042 33.5461C20.6683 33.5461 20.6327 33.5391 20.5996 33.5253C20.5664 33.5116 20.5363 33.4914 20.511 33.466L19.3513 32.3069C19.3259 32.2816 19.3058 32.2514 19.2921 32.2183C19.2783 32.1851 19.2712 32.1496 19.2712 32.1137C19.2712 32.0778 19.2783 32.0423 19.2921 32.0092C19.3058 31.976 19.3259 31.9459 19.3513 31.9205C19.3767 31.8952 19.4068 31.875 19.44 31.8613C19.4731 31.8475 19.5086 31.8405 19.5445 31.8405C19.5804 31.8405 19.6159 31.8475 19.6491 31.8613C19.6822 31.875 19.7123 31.8952 19.7377 31.9205L20.8973 33.0796C20.9227 33.105 20.9429 33.1351 20.9566 33.1683C20.9704 33.2014 20.9774 33.2369 20.9774 33.2728C20.9774 33.3087 20.9704 33.3442 20.9566 33.3774C20.9429 33.4105 20.9227 33.4407 20.8973 33.466C20.872 33.4915 20.8419 33.5116 20.8088 33.5254C20.7756 33.5391 20.7401 33.5461 20.7042 33.5461Z"
              fill="#464747"/>
    </g>
    <defs>
        <clipPath id="clip0_2979_11944">
            <rect width="35" height="35" fill="white"/>
        </clipPath>
    </defs>
</svg>
