<svg width="36" height="36" viewBox="0 0 36 36" fill="none" xmlns="http://www.w3.org/2000/svg">
    <g clip-path="url(#clip0_2979_12059)">
        <path d="M19.0994 35.7905C18.6794 35.7905 18.2596 35.6306 17.94 35.3112C17.9146 35.2858 17.8945 35.2557 17.8807 35.2226C17.867 35.1894 17.8599 35.1539 17.8599 35.118C17.8599 35.0821 17.867 35.0466 17.8807 35.0135C17.8945 34.9803 17.9146 34.9502 17.94 34.9248C17.9654 34.8995 17.9955 34.8793 18.0286 34.8656C18.0618 34.8518 18.0973 34.8448 18.1332 34.8448C18.1691 34.8448 18.2046 34.8518 18.2378 34.8656C18.2709 34.8793 18.3011 34.8995 18.3264 34.9248C18.7533 35.3512 19.4472 35.3506 19.8731 34.9243C20.2987 34.4981 20.2985 33.8048 19.872 33.3788C19.8466 33.3534 19.8264 33.3233 19.8127 33.2901C19.7989 33.257 19.7919 33.2215 19.7919 33.1856C19.7919 33.1497 19.7989 33.1142 19.8127 33.081C19.8264 33.0479 19.8466 33.0177 19.872 32.9924C19.8973 32.967 19.9274 32.9468 19.9606 32.9331C19.9937 32.9194 20.0293 32.9123 20.0652 32.9123C20.101 32.9123 20.1366 32.9194 20.1697 32.9331C20.2029 32.9468 20.233 32.967 20.2583 32.9924C20.8977 33.6312 20.8982 34.6711 20.2594 35.3107C19.9397 35.6303 19.5194 35.7905 19.0994 35.7905ZM21.8054 33.0862C21.367 33.0862 20.955 32.9154 20.6452 32.6053C20.6198 32.58 20.5996 32.5499 20.5859 32.5167C20.5722 32.4836 20.5651 32.448 20.5651 32.4121C20.5651 32.3763 20.5722 32.3407 20.5859 32.3076C20.5996 32.2744 20.6198 32.2443 20.6452 32.219C20.6705 32.1936 20.7007 32.1734 20.7338 32.1597C20.7669 32.1459 20.8025 32.1389 20.8384 32.1389C20.8742 32.1389 20.9098 32.1459 20.9429 32.1597C20.9761 32.1734 21.0062 32.1936 21.0315 32.219C21.4441 32.6318 22.1643 32.6329 22.5771 32.2201C23.0032 31.794 23.003 31.1003 22.5765 30.674L20.4514 28.5477C20.426 28.5224 20.4059 28.4922 20.3922 28.4591C20.3784 28.4259 20.3714 28.3904 20.3714 28.3545C20.3714 28.3187 20.3784 28.2831 20.3922 28.25C20.4059 28.2168 20.426 28.1867 20.4514 28.1614C20.4767 28.136 20.5069 28.1159 20.54 28.1021C20.5732 28.0884 20.6087 28.0813 20.6446 28.0813C20.6804 28.0813 20.716 28.0884 20.7491 28.1021C20.7823 28.1159 20.8124 28.136 20.8377 28.1614L22.9629 30.2876C23.6025 30.927 23.6025 31.9674 22.9634 32.6065C22.6545 32.9157 22.2431 33.0862 21.8054 33.0862ZM24.5094 30.3806C24.0893 30.3806 23.6697 30.2208 23.35 29.9011L21.2248 27.7759C21.1994 27.7505 21.1793 27.7204 21.1656 27.6872C21.1518 27.6541 21.1448 27.6186 21.1448 27.5827C21.1448 27.5468 21.1518 27.5113 21.1656 27.4781C21.1793 27.445 21.1994 27.4149 21.2248 27.3895C21.2502 27.3641 21.2803 27.344 21.3134 27.3303C21.3466 27.3166 21.3821 27.3095 21.418 27.3095C21.4539 27.3095 21.4894 27.3166 21.5225 27.3303C21.5557 27.344 21.5858 27.3641 21.6112 27.3895L23.7363 29.5147C24.1627 29.9411 24.856 29.9411 25.2824 29.5147C25.7088 29.0883 25.7088 28.3945 25.2824 27.968L23.1567 25.8434C23.0499 25.7367 23.0499 25.5638 23.1567 25.4571C23.2635 25.3504 23.4364 25.3503 23.5431 25.4571L25.6688 27.5817C26.3084 28.2211 26.3084 29.2618 25.6688 29.9012C25.3492 30.2208 24.9295 30.3806 24.5094 30.3806ZM27.2147 27.6754C26.7949 27.6754 26.3753 27.5158 26.0555 27.1966L23.9295 25.0701C23.9041 25.0448 23.884 25.0147 23.8703 24.9815C23.8565 24.9484 23.8495 24.9128 23.8495 24.877C23.8495 24.8411 23.8565 24.8056 23.8703 24.7724C23.884 24.7393 23.9041 24.7091 23.9295 24.6838C23.9549 24.6584 23.985 24.6382 24.0181 24.6245C24.0513 24.6108 24.0868 24.6037 24.1227 24.6037C24.1586 24.6037 24.1941 24.6108 24.2273 24.6245C24.2604 24.6382 24.2905 24.6584 24.3159 24.6838L26.4416 26.81C26.868 27.2354 27.5613 27.2359 27.9872 26.81C28.4135 26.3836 28.4135 25.6898 27.9872 25.2634L20.8384 18.115C20.813 18.0896 20.7929 18.0595 20.7792 18.0264C20.7654 17.9932 20.7583 17.9577 20.7583 17.9218C20.7583 17.8859 20.7654 17.8504 20.7792 17.8172C20.7929 17.7841 20.813 17.754 20.8384 17.7286C20.8638 17.7032 20.8939 17.6831 20.9271 17.6693C20.9602 17.6556 20.9957 17.6485 21.0316 17.6485C21.0675 17.6485 21.103 17.6556 21.1362 17.6693C21.1693 17.6831 21.1994 17.7032 21.2248 17.7286L28.3736 24.8769C29.0132 25.5163 29.0132 26.557 28.3736 27.1963C28.0545 27.5158 27.6347 27.6754 27.2147 27.6754ZM7.13716 23.588C7.08673 23.5881 7.03727 23.5742 6.99427 23.5478C6.95126 23.5215 6.91639 23.4838 6.89353 23.4388C5.71009 21.1175 5.32072 18.8355 5.30472 18.7394C5.29286 18.668 5.30983 18.5947 5.3519 18.5358C5.39398 18.4769 5.45773 18.437 5.52914 18.4251C5.6794 18.4026 5.81865 18.5011 5.84373 18.6495C5.84749 18.6725 6.2368 20.9475 7.38025 23.1907C7.40152 23.2324 7.41176 23.2788 7.40997 23.3255C7.40818 23.3722 7.39443 23.4176 7.37004 23.4575C7.34564 23.4974 7.31142 23.5303 7.27064 23.5532C7.22987 23.576 7.18391 23.588 7.13716 23.588ZM15.3195 13.8583C15.2833 13.8583 15.2475 13.8511 15.2141 13.8371C13.3168 13.0427 12.0298 12.3738 12.017 12.3671C11.9528 12.3335 11.9045 12.2758 11.8828 12.2066C11.8611 12.1375 11.8677 12.0625 11.9012 11.9983C11.9177 11.9664 11.9404 11.9381 11.9679 11.915C11.9954 11.8919 12.0272 11.8744 12.0615 11.8637C12.0958 11.8529 12.1319 11.849 12.1676 11.8523C12.2034 11.8555 12.2382 11.8657 12.27 11.8825C12.2826 11.8892 13.5506 12.5483 15.4249 13.3328C15.4831 13.3572 15.531 13.401 15.5605 13.4568C15.59 13.5125 15.5994 13.5768 15.587 13.6386C15.5746 13.7004 15.5412 13.7561 15.4924 13.7961C15.4437 13.8362 15.3826 13.8581 15.3195 13.8583ZM28.3072 23.9232C28.257 23.9232 28.2078 23.9094 28.1649 23.8833C28.1221 23.8571 28.0872 23.8197 28.0643 23.775C28.0413 23.7304 28.0311 23.6803 28.0347 23.6302C28.0384 23.5801 28.0557 23.532 28.0849 23.4912C29.7161 21.2041 30.0305 17.9299 30.0335 17.8971C30.0473 17.7471 30.1762 17.6345 30.3305 17.6497C30.4026 17.6563 30.4692 17.6913 30.5156 17.747C30.562 17.8027 30.5844 17.8745 30.5778 17.9467C30.5649 18.0865 30.2461 21.4024 28.5301 23.8088C28.5047 23.8442 28.4713 23.8731 28.4325 23.893C28.3938 23.9129 28.3508 23.9233 28.3072 23.9232ZM16.7808 35.0181H16.7805C16.3428 35.0181 15.9311 34.8474 15.6216 34.5379C14.9828 33.8993 14.9828 32.8591 15.6213 32.2192L16.7808 31.0598C17.4009 30.4403 18.4806 30.4407 19.0992 31.0603C19.7383 31.6994 19.7383 32.7396 19.0992 33.3788L17.9405 34.5374C17.6304 34.8474 17.2186 35.0181 16.7808 35.0181ZM17.9402 31.1264C17.7966 31.1261 17.6543 31.1542 17.5215 31.2091C17.3888 31.264 17.2682 31.3447 17.1668 31.4464L16.008 32.6053C15.5823 33.032 15.5821 33.7256 16.008 34.1515C16.1092 34.2533 16.2295 34.334 16.3621 34.389C16.4947 34.4439 16.6369 34.472 16.7805 34.4717H16.7808C17.0727 34.4717 17.3473 34.3578 17.554 34.151L18.7127 32.9924C19.1388 32.5662 19.1388 31.8729 18.7127 31.4468C18.6116 31.3449 18.4912 31.2641 18.3586 31.2091C18.226 31.1541 18.0838 31.126 17.9402 31.1264ZM14.0754 32.3132C13.6378 32.3132 13.2263 32.1427 12.9168 31.8331C12.278 31.1936 12.278 30.1534 12.9168 29.5137L14.4624 27.9681C15.082 27.3493 16.1628 27.3488 16.7808 27.9681C17.4201 28.6075 17.4201 29.6477 16.7808 30.2871L15.2352 31.8326C14.9253 32.1424 14.5133 32.3132 14.0754 32.3132ZM15.6221 28.0348C15.4784 28.0344 15.3362 28.0624 15.2034 28.1172C15.0707 28.1721 14.9502 28.2527 14.8488 28.3545L13.3032 29.9001C12.8773 30.3264 12.8773 31.0204 13.3032 31.4467C13.4043 31.5485 13.5247 31.6291 13.6573 31.6841C13.7898 31.739 13.9319 31.7671 14.0754 31.7667C14.2191 31.767 14.3614 31.7389 14.4942 31.6839C14.6269 31.6288 14.7474 31.5481 14.8488 31.4462L16.3943 29.9007C16.8205 29.4745 16.8205 28.7807 16.3943 28.3545C16.2932 28.2528 16.1728 28.1721 16.0403 28.1172C15.9077 28.0623 15.7655 28.0343 15.6221 28.0348ZM11.3707 29.6076C10.9325 29.6076 10.521 29.4374 10.212 29.1277C9.90216 28.8185 9.7314 28.4067 9.73113 27.9688C9.73042 27.7533 9.77246 27.5398 9.85482 27.3407C9.93718 27.1416 10.0582 26.9608 10.2109 26.8088L11.3707 25.6496C11.99 25.0297 13.0708 25.0302 13.6895 25.6502C13.9993 25.9592 14.1699 26.3707 14.1699 26.8088C14.1699 27.2464 13.9993 27.6582 13.6895 27.968L12.5298 29.1277C12.22 29.4374 11.8083 29.6076 11.3707 29.6076ZM12.5299 25.7159C12.3863 25.7155 12.2441 25.7436 12.1114 25.7986C11.9788 25.8536 11.8583 25.9343 11.7571 26.0361L10.5974 27.1953C10.4956 27.2967 10.4149 27.4172 10.3601 27.5499C10.3052 27.6827 10.2772 27.825 10.2777 27.9686C10.2775 28.1122 10.3057 28.2544 10.3608 28.3871C10.4158 28.5197 10.4966 28.6401 10.5985 28.7414C11.0105 29.1539 11.7304 29.1539 12.1435 28.7414L13.3032 27.5817C13.4051 27.4804 13.4858 27.36 13.5408 27.2273C13.5957 27.0947 13.6239 26.9525 13.6235 26.8089C13.6235 26.517 13.5098 26.2429 13.3035 26.0369C13.2022 25.9349 13.0817 25.8539 12.9489 25.7988C12.8161 25.7438 12.6737 25.7156 12.5299 25.7159ZM8.66568 26.9029H8.6654C8.22749 26.9029 7.81604 26.7326 7.50678 26.423C6.86762 25.7834 6.86762 24.7433 7.50678 24.1041L8.27958 23.3313C8.89892 22.7117 9.97804 22.7127 10.5974 23.3318C10.9072 23.6416 11.0777 24.0531 11.078 24.4907C11.0783 24.9284 10.9077 25.3399 10.5979 25.6496L9.82512 26.4224C9.51525 26.7323 9.10352 26.9029 8.66568 26.9029ZM9.43793 23.3978C9.29449 23.3975 9.1524 23.4256 9.01989 23.4805C8.88738 23.5354 8.76708 23.6161 8.66595 23.7178L7.89315 24.4906C7.46727 24.9167 7.46727 25.6103 7.89315 26.0367C7.99433 26.1384 8.11468 26.219 8.24724 26.2739C8.3798 26.3288 8.52193 26.3568 8.6654 26.3564H8.66568C8.95764 26.3564 9.23217 26.2427 9.43875 26.0361L10.2116 25.2633C10.4181 25.0568 10.5315 24.7825 10.5315 24.4908C10.5315 24.1991 10.4176 23.9249 10.2111 23.7183C10.0042 23.5118 9.72983 23.3978 9.43793 23.3978ZM14.4629 19.5602C14.0428 19.5602 13.6228 19.4001 13.3032 19.0804C12.6641 18.4413 12.6641 17.4017 13.3032 16.7626L15.8148 14.25C18.1705 11.8943 23.4738 11.1138 23.6982 11.0815C23.846 11.0577 23.9859 11.1637 24.0075 11.3134C24.0177 11.3851 23.9991 11.458 23.9556 11.516C23.9121 11.574 23.8473 11.6124 23.7756 11.6226C23.7222 11.6301 18.4277 12.4098 16.2011 14.6364L13.6895 17.149C13.2637 17.5749 13.2637 18.2682 13.6895 18.6941C14.1157 19.1205 14.8089 19.1205 15.2352 18.6946C15.3771 18.5526 18.7327 15.2379 20.452 16.9553C20.4774 16.9807 20.4975 17.0108 20.5112 17.044C20.525 17.0771 20.532 17.1126 20.532 17.1485C20.532 17.1844 20.525 17.2199 20.5112 17.2531C20.4975 17.2862 20.4774 17.3163 20.452 17.3417C20.4266 17.3671 20.3965 17.3872 20.3634 17.401C20.3302 17.4147 20.2947 17.4218 20.2588 17.4218C20.2229 17.4218 20.1874 17.4147 20.1542 17.401C20.1211 17.3872 20.091 17.3671 20.0656 17.3417C18.9571 16.2348 16.4818 18.2212 15.6215 19.081C15.3021 19.4004 14.8824 19.5602 14.4629 19.5602ZM31.4654 17.8087C31.4295 17.8087 31.3939 17.8017 31.3608 17.788C31.3276 17.7742 31.2975 17.7541 31.2722 17.7286L23.9301 10.3861C23.9047 10.3607 23.8846 10.3306 23.8709 10.2974C23.8572 10.2643 23.8501 10.2288 23.8501 10.1929C23.8501 10.157 23.8572 10.1215 23.8709 10.0883C23.8846 10.0552 23.9047 10.0251 23.9301 9.99971C23.9555 9.97432 23.9856 9.95418 24.0187 9.94044C24.0519 9.92669 24.0874 9.91962 24.1233 9.91962C24.1592 9.91962 24.1947 9.92669 24.2279 9.94044C24.261 9.95418 24.2911 9.97432 24.3165 9.99971L31.6586 17.3423C31.6968 17.3805 31.7228 17.4291 31.7334 17.4822C31.744 17.5352 31.7386 17.5901 31.7179 17.64C31.6972 17.69 31.6622 17.7327 31.6172 17.7627C31.5723 17.7927 31.5194 17.8087 31.4654 17.8087ZM34.1706 16.649C34.1347 16.649 34.0992 16.642 34.066 16.6282C34.0329 16.6145 34.0028 16.5943 33.9774 16.5689L25.0893 7.6813C25.0639 7.65594 25.0438 7.62582 25.0301 7.59267C25.0163 7.55953 25.0093 7.524 25.0093 7.48812C25.0093 7.45224 25.0163 7.41671 25.0301 7.38357C25.0438 7.35042 25.0639 7.3203 25.0893 7.29494C25.1146 7.26955 25.1448 7.2494 25.1779 7.23566C25.2111 7.22192 25.2466 7.21484 25.2825 7.21484C25.3184 7.21484 25.3539 7.22192 25.387 7.23566C25.4202 7.2494 25.4503 7.26955 25.4757 7.29494L34.3638 16.1825C34.402 16.2207 34.4281 16.2694 34.4387 16.3224C34.4492 16.3754 34.4438 16.4304 34.4231 16.4803C34.4024 16.5303 34.3674 16.5729 34.3225 16.603C34.2775 16.633 34.2247 16.649 34.1706 16.649Z"
              fill="#464747"/>
        <path d="M24.1233 10.466C24.0692 10.466 24.0164 10.45 23.9714 10.42C23.9265 10.39 23.8915 10.3473 23.8708 10.2974C23.8501 10.2474 23.8447 10.1925 23.8553 10.1395C23.8658 10.0865 23.8919 10.0378 23.9301 9.99959L25.0893 8.84035C25.1146 8.81498 25.1448 8.79486 25.1779 8.78113C25.211 8.7674 25.2466 8.76033 25.2824 8.76033C25.3183 8.76033 25.3538 8.7674 25.387 8.78113C25.4201 8.79486 25.4503 8.81498 25.4756 8.84035C25.501 8.86572 25.5211 8.89584 25.5349 8.92898C25.5486 8.96213 25.5557 8.99766 25.5557 9.03354C25.5557 9.06941 25.5486 9.10494 25.5349 9.13809C25.5211 9.17123 25.501 9.20135 25.4756 9.22672L24.3165 10.386C24.2911 10.4114 24.261 10.4315 24.2279 10.4453C24.1947 10.459 24.1592 10.4661 24.1233 10.466ZM31.4653 17.8086C31.4295 17.8086 31.3939 17.8016 31.3608 17.7878C31.3276 17.7741 31.2975 17.7539 31.2722 17.7285C31.2468 17.7031 31.2266 17.673 31.2129 17.6399C31.1991 17.6067 31.1921 17.5712 31.1921 17.5353C31.1921 17.4994 31.1991 17.4639 31.2129 17.4308C31.2266 17.3976 31.2468 17.3675 31.2722 17.3421L32.4313 16.1829C32.4567 16.1575 32.4868 16.1374 32.52 16.1237C32.5531 16.11 32.5887 16.1029 32.6245 16.1029C32.6604 16.1029 32.6959 16.11 32.7291 16.1237C32.7622 16.1374 32.7924 16.1576 32.8177 16.1829C32.8431 16.2083 32.8632 16.2384 32.877 16.2716C32.8907 16.3047 32.8977 16.3403 32.8977 16.3761C32.8977 16.412 32.8907 16.4476 32.8769 16.4807C32.8632 16.5138 32.8431 16.544 32.8177 16.5693L31.6585 17.7285C31.6332 17.7539 31.6031 17.7741 31.5699 17.7878C31.5368 17.8015 31.5012 17.8086 31.4653 17.8086ZM25.2824 7.76123C25.2284 7.76125 25.1756 7.74524 25.1306 7.71523C25.0857 7.68521 25.0506 7.64253 25.0299 7.5926C25.0093 7.54266 25.0039 7.48771 25.0144 7.43471C25.025 7.3817 25.051 7.33301 25.0893 7.29481L31.4697 0.914492C31.495 0.889123 31.5251 0.868999 31.5583 0.855269C31.5914 0.841539 31.627 0.834473 31.6628 0.834473C31.6987 0.834473 31.7342 0.841539 31.7674 0.855269C31.8005 0.868999 31.8307 0.889123 31.856 0.914492C31.8814 0.939861 31.9015 0.969979 31.9152 1.00313C31.929 1.03627 31.936 1.0718 31.936 1.10768C31.936 1.14355 31.929 1.17908 31.9152 1.21223C31.9015 1.24537 31.8814 1.27549 31.856 1.30086L25.4756 7.68118C25.4503 7.70661 25.4202 7.72677 25.387 7.74051C25.3539 7.75425 25.3183 7.76129 25.2824 7.76123ZM34.1706 16.6488C34.1347 16.6489 34.0992 16.6419 34.066 16.6281C34.0329 16.6144 34.0027 16.5942 33.9774 16.5688C33.952 16.5434 33.9319 16.5133 33.9181 16.4802C33.9044 16.447 33.8973 16.4115 33.8973 16.3756C33.8973 16.3397 33.9044 16.3042 33.9181 16.271C33.9319 16.2379 33.952 16.2078 33.9774 16.1824L34.9867 15.1743C35.012 15.1489 35.0422 15.1288 35.0753 15.115C35.1085 15.1013 35.144 15.0942 35.1799 15.0942C35.2157 15.0942 35.2513 15.1013 35.2844 15.115C35.3176 15.1288 35.3477 15.1489 35.373 15.1743C35.3984 15.1996 35.4185 15.2297 35.4323 15.2629C35.446 15.296 35.4531 15.3316 35.4531 15.3674C35.4531 15.4033 35.446 15.4388 35.4323 15.472C35.4185 15.5051 35.3984 15.5353 35.373 15.5606L34.3638 16.5688C34.3384 16.5942 34.3083 16.6144 34.2752 16.6281C34.242 16.6418 34.2065 16.6489 34.1706 16.6488ZM4.41506 18.5803C4.36101 18.5803 4.30816 18.5643 4.2632 18.5343C4.21824 18.5043 4.1832 18.4616 4.16251 18.4117C4.14182 18.3617 4.13641 18.3068 4.14697 18.2538C4.15752 18.2007 4.18357 18.1521 4.22181 18.1138L11.5644 10.7723C11.6711 10.6655 11.844 10.6655 11.9507 10.7723C12.0574 10.8791 12.0575 11.052 11.9507 11.1587L4.60825 18.5002C4.5829 18.5256 4.55278 18.5458 4.51963 18.5595C4.48648 18.5732 4.45095 18.5803 4.41506 18.5803ZM1.71029 17.4216C1.6744 17.4217 1.63886 17.4146 1.6057 17.4009C1.57255 17.3872 1.54244 17.367 1.5171 17.3416C1.49171 17.3162 1.47157 17.2861 1.45783 17.253C1.44409 17.2198 1.43701 17.1843 1.43701 17.1484C1.43701 17.1125 1.44409 17.077 1.45783 17.0438C1.47157 17.0107 1.49171 16.9806 1.5171 16.9552L10.4053 8.06762C10.4306 8.04223 10.4607 8.02208 10.4939 8.00834C10.527 7.9946 10.5626 7.98752 10.5984 7.98752C10.6343 7.98752 10.6699 7.9946 10.703 8.00834C10.7362 8.02208 10.7663 8.04223 10.7916 8.06762C10.817 8.09297 10.8372 8.12309 10.8509 8.15624C10.8646 8.18938 10.8717 8.22492 10.8717 8.2608C10.8717 8.29668 10.8646 8.33222 10.8509 8.36536C10.8372 8.39851 10.817 8.42863 10.7916 8.45398L1.90347 17.3416C1.87813 17.367 1.84802 17.3872 1.81487 17.4009C1.78172 17.4146 1.74617 17.4217 1.71029 17.4216Z"
              fill="#464747"/>
        <path d="M4.41515 18.5806C4.37925 18.5807 4.34371 18.5736 4.31054 18.5599C4.27738 18.5461 4.24726 18.526 4.2219 18.5006L3.06273 17.3419C2.95595 17.2352 2.95595 17.0623 3.06273 16.9556C3.1695 16.8489 3.34239 16.8488 3.44909 16.9556L4.60833 18.1142C4.64657 18.1524 4.67262 18.2011 4.68317 18.2541C4.69373 18.3071 4.68833 18.3621 4.66765 18.412C4.64696 18.4619 4.61193 18.5046 4.56699 18.5346C4.52204 18.5646 4.4692 18.5806 4.41515 18.5806ZM11.7577 11.2391C11.7218 11.2391 11.6863 11.2321 11.6531 11.2184C11.62 11.2046 11.5899 11.1845 11.5645 11.159L10.4053 9.99988C10.3799 9.97452 10.3597 9.94441 10.346 9.91126C10.3323 9.87811 10.3252 9.84258 10.3252 9.8067C10.3252 9.77081 10.3323 9.73528 10.346 9.70213C10.3597 9.66898 10.3799 9.63887 10.4053 9.61351C10.4306 9.58812 10.4607 9.56798 10.4939 9.55424C10.527 9.54049 10.5626 9.53342 10.5985 9.53342C10.6343 9.53342 10.6699 9.54049 10.703 9.55424C10.7362 9.56798 10.7663 9.58812 10.7916 9.61351L11.9509 10.7727C11.9763 10.798 11.9964 10.8282 12.0102 10.8613C12.0239 10.8945 12.031 10.93 12.031 10.9659C12.031 11.0017 12.0239 11.0373 12.0102 11.0704C11.9964 11.1036 11.9763 11.1337 11.9509 11.159C11.9255 11.1845 11.8954 11.2046 11.8623 11.2184C11.8291 11.2321 11.7936 11.2391 11.7577 11.2391ZM1.71037 17.422C1.67449 17.422 1.63894 17.415 1.60579 17.4013C1.57264 17.3875 1.54253 17.3674 1.51719 17.3419L0.553323 16.3781C0.502609 16.3267 0.474269 16.2574 0.474489 16.1852C0.47471 16.1131 0.503473 16.0439 0.554499 15.9929C0.605525 15.9419 0.67467 15.9131 0.746838 15.9128C0.819006 15.9126 0.888335 15.9409 0.93969 15.9916L1.90356 16.9555C1.92895 16.9809 1.94909 17.011 1.96283 17.0441C1.97658 17.0773 1.98365 17.1128 1.98365 17.1487C1.98365 17.1846 1.97658 17.2201 1.96283 17.2533C1.94909 17.2864 1.92895 17.3165 1.90356 17.3419C1.87823 17.3673 1.84812 17.3875 1.81497 17.4012C1.78181 17.415 1.74627 17.422 1.71037 17.422ZM10.5985 8.53439C10.5626 8.53442 10.527 8.52736 10.4939 8.51362C10.4607 8.49989 10.4306 8.47974 10.4053 8.45434L3.25434 1.30334C3.14756 1.19656 3.14756 1.02368 3.25434 0.916971C3.36112 0.810262 3.534 0.810194 3.64071 0.916971L10.7916 8.06791C10.817 8.09327 10.8372 8.12338 10.8509 8.15653C10.8647 8.18968 10.8717 8.22521 10.8717 8.26109C10.8717 8.29698 10.8647 8.33251 10.8509 8.36566C10.8372 8.3988 10.817 8.42892 10.7916 8.45428C10.7663 8.47971 10.7362 8.49988 10.7031 8.51363C10.6699 8.52738 10.6344 8.53443 10.5985 8.53439ZM1.27219 15.0241C1.16441 15.0244 1.05764 15.0033 0.958055 14.9621C0.858471 14.9209 0.768049 14.8603 0.692024 14.7839C0.373128 14.4635 0.373674 13.9437 0.692571 13.6248C1.00108 13.3152 1.54303 13.315 1.85201 13.625C1.92829 13.7009 1.98874 13.7912 2.02987 13.8906C2.071 13.99 2.09199 14.0965 2.09161 14.2041C2.09202 14.3118 2.07102 14.4186 2.02984 14.5181C1.98867 14.6176 1.92813 14.708 1.85174 14.7839C1.77587 14.8604 1.68556 14.921 1.58607 14.9622C1.48658 15.0034 1.37988 15.0245 1.27219 15.0241ZM1.27219 13.9311C1.19905 13.9311 1.13048 13.9594 1.07928 14.0109C1.02802 14.0622 0.999201 14.1318 0.99915 14.2044C0.999099 14.277 1.02781 14.3466 1.07901 14.3981C1.18093 14.4997 1.36215 14.5005 1.4651 14.3978C1.49058 14.3724 1.51078 14.3423 1.52452 14.3091C1.53826 14.2759 1.54527 14.2403 1.54515 14.2043C1.54515 14.1312 1.51685 14.0626 1.46537 14.0111C1.4401 13.9856 1.41 13.9654 1.37683 13.9517C1.34366 13.9379 1.30809 13.9309 1.27219 13.9311Z"
              fill="#464747"/>
    </g>
    <defs>
        <clipPath id="clip0_2979_12059">
            <rect width="35" height="35" fill="white" transform="translate(0.453125 0.8125)"/>
        </clipPath>
    </defs>
</svg>
