<svg width="35" height="35" viewBox="0 0 35 35" fill="none" xmlns="http://www.w3.org/2000/svg">
    <g clip-path="url(#clip0_2979_11985)">
        <path d="M34.1786 34.999H0.821289C0.670146 34.999 0.547852 34.8767 0.547852 34.7255V30.3508C0.547852 28.0037 1.76355 27.1045 4.00677 26.2666C6.36852 25.385 8.24662 24.569 9.43806 23.9078C9.57102 23.8362 9.73658 23.8822 9.80979 24.0146C9.82723 24.046 9.83831 24.0805 9.8424 24.1161C9.84649 24.1518 9.84352 24.1879 9.83364 24.2225C9.82377 24.257 9.8072 24.2892 9.78487 24.3173C9.76254 24.3454 9.73489 24.3689 9.7035 24.3863C8.48861 25.0602 6.5848 25.8874 4.19797 26.7793C2.09551 27.5643 1.09473 28.2991 1.09473 30.3508V34.4522H33.9052V30.3508C33.9052 28.2991 32.9045 27.5643 30.802 26.7793C28.3743 25.8709 26.5218 25.0656 25.2962 24.3863C25.2328 24.3511 25.1859 24.2922 25.1659 24.2225C25.1459 24.1528 25.1543 24.078 25.1894 24.0146C25.2626 23.8821 25.4292 23.8362 25.5612 23.9078C26.7633 24.5743 28.5912 25.3678 30.9938 26.2666C33.2368 27.1045 34.4522 28.0037 34.4522 30.3508V34.7255C34.4522 34.7614 34.4451 34.797 34.4314 34.8302C34.4176 34.8634 34.3975 34.8935 34.3721 34.9189C34.3466 34.9443 34.3165 34.9645 34.2833 34.9782C34.2501 34.9919 34.2145 34.999 34.1786 34.999Z"
              fill="#464747"/>
        <path d="M17.5001 24.6089C13.7029 24.6089 7.65698 19.228 7.65698 12.8518C7.65698 12.7007 7.77928 12.5784 7.93042 12.5784C7.96633 12.5784 8.00189 12.5854 8.03507 12.5991C8.06825 12.6129 8.0984 12.633 8.12379 12.6584C8.14917 12.6838 8.16931 12.714 8.18304 12.7472C8.19676 12.7803 8.20382 12.8159 8.20379 12.8518C8.20379 18.9317 13.9138 24.0621 17.5001 24.0621C21.0867 24.0621 26.7964 18.9317 26.7964 12.8518C26.7964 12.7007 26.9187 12.5784 27.0699 12.5784C27.1058 12.5784 27.1414 12.5854 27.1745 12.5991C27.2077 12.6129 27.2379 12.633 27.2632 12.6584C27.2886 12.6838 27.3088 12.714 27.3225 12.7472C27.3362 12.7803 27.3433 12.8159 27.3433 12.8518C27.3433 19.228 21.297 24.6089 17.5001 24.6089ZM17.5164 26.7963C17.3655 26.7963 17.2403 26.674 17.2403 26.5229C17.2403 26.3717 17.3599 26.2494 17.5111 26.2494H17.5164C17.6675 26.2494 17.7898 26.3717 17.7898 26.5229C17.7898 26.674 17.6675 26.7963 17.5164 26.7963ZM17.5164 28.9837C17.3655 28.9837 17.2403 28.8614 17.2403 28.7102C17.2403 28.5591 17.3599 28.4368 17.5111 28.4368H17.5164C17.6675 28.4368 17.7898 28.5591 17.7898 28.7102C17.7898 28.8614 17.6675 28.9837 17.5164 28.9837ZM17.5164 31.171C17.3655 31.171 17.2403 31.0487 17.2403 30.8976C17.2403 30.7464 17.3599 30.6241 17.5111 30.6241H17.5164C17.6675 30.6241 17.7898 30.7464 17.7898 30.8976C17.7898 31.0487 17.6675 31.171 17.5164 31.171ZM17.5164 33.3584C17.3655 33.3584 17.2403 33.2361 17.2403 33.0849C17.2403 32.9338 17.3599 32.8115 17.5111 32.8115H17.5164C17.6675 32.8115 17.7898 32.9338 17.7898 33.0849C17.7898 33.2361 17.6675 33.3584 17.5164 33.3584Z"
              fill="#464747"/>
        <path d="M24.3354 23.5152C24.1843 23.5152 24.062 23.393 24.062 23.2419V22.1482C24.062 21.9971 24.1843 21.8748 24.3354 21.8748C24.4866 21.8748 24.6089 21.9971 24.6089 22.1482V23.2419C24.6089 23.2778 24.6018 23.3133 24.5881 23.3465C24.5744 23.3797 24.5542 23.4099 24.5288 23.4352C24.5034 23.4606 24.4733 23.4808 24.4401 23.4945C24.4069 23.5082 24.3714 23.5153 24.3354 23.5152Z"
              fill="#464747"/>
        <path d="M21.6013 27.3432C21.5443 27.3433 21.4886 27.3255 21.4422 27.2924C21.413 27.2715 21.3881 27.2451 21.3692 27.2145C21.3502 27.184 21.3374 27.1501 21.3315 27.1146C21.3257 27.0792 21.3269 27.0429 21.335 27.0079C21.3432 26.9729 21.3582 26.9398 21.3792 26.9107L24.1134 23.0827C24.1558 23.0241 24.2196 22.9845 24.291 22.9726C24.3624 22.9607 24.4356 22.9774 24.4947 23.0192C24.5239 23.0401 24.5487 23.0666 24.5677 23.0971C24.5867 23.1276 24.5995 23.1616 24.6053 23.197C24.6112 23.2325 24.61 23.2688 24.6018 23.3038C24.5937 23.3388 24.5787 23.3718 24.5577 23.401L21.8235 27.2289C21.7982 27.2642 21.7649 27.293 21.7263 27.3129C21.6876 27.3328 21.6448 27.3432 21.6013 27.3432Z"
              fill="#464747"/>
        <path d="M21.6014 27.3432C21.5589 27.3433 21.517 27.3335 21.4791 27.3143L18.1981 25.6738C18.1332 25.6414 18.0839 25.5845 18.061 25.5157C18.038 25.4469 18.0433 25.3718 18.0758 25.307C18.1082 25.2421 18.1651 25.1928 18.2339 25.1698C18.3027 25.1469 18.3777 25.1522 18.4426 25.1846L21.7237 26.8252C21.7649 26.8252 21.8056 26.8345 21.8428 26.8525C21.8799 26.8704 21.9125 26.8966 21.9381 26.9289C21.9637 26.9613 21.9817 26.999 21.9907 27.0393C21.9996 27.0795 21.9994 27.1213 21.9899 27.1615C21.9804 27.2016 21.9619 27.2391 21.9359 27.2711C21.9099 27.3031 21.877 27.3289 21.8396 27.3463C21.8022 27.3638 21.7614 27.3726 21.7201 27.3721C21.6789 27.3715 21.6383 27.3616 21.6014 27.3432ZM10.6646 23.5152C10.5134 23.5152 10.3911 23.393 10.3911 23.2419V22.1482C10.3911 21.9971 10.5134 21.8748 10.6646 21.8748C10.8157 21.8748 10.938 21.9971 10.938 22.1482V23.2419C10.938 23.2778 10.9309 23.3133 10.9172 23.3465C10.9035 23.3797 10.8833 23.4099 10.8579 23.4352C10.8325 23.4606 10.8024 23.4808 10.7692 23.4945C10.736 23.5082 10.7005 23.5153 10.6646 23.5152Z"
              fill="#464747"/>
        <path d="M13.399 27.3431C13.3555 27.3433 13.3125 27.333 13.2737 27.3131C13.235 27.2932 13.2016 27.2643 13.1763 27.2288L10.4421 23.401C10.3999 23.3419 10.3829 23.2685 10.3948 23.1969C10.4068 23.1253 10.4466 23.0614 10.5056 23.0191C10.6287 22.9321 10.7991 22.9599 10.8869 23.0827L13.6211 26.9106C13.6633 26.9697 13.6803 27.0431 13.6684 27.1146C13.6564 27.1862 13.6166 27.2502 13.5576 27.2924C13.5095 27.3266 13.454 27.3431 13.399 27.3431Z"
              fill="#464747"/>
        <path d="M13.3989 27.3431C13.3373 27.3432 13.2775 27.3224 13.2291 27.2842C13.1808 27.246 13.1468 27.1926 13.1326 27.1327C13.1184 27.0727 13.1249 27.0097 13.151 26.9539C13.1771 26.8981 13.2212 26.8528 13.2763 26.8252L16.5574 25.1846C16.6222 25.1522 16.6973 25.1469 16.7661 25.1698C16.8349 25.1927 16.8918 25.2421 16.9242 25.3069C16.9567 25.3718 16.962 25.4469 16.9391 25.5157C16.9161 25.5845 16.8668 25.6414 16.8019 25.6738L13.5209 27.3143C13.4831 27.3333 13.4413 27.3432 13.3989 27.3431ZM7.9302 11.4847C7.90759 11.4848 7.88507 11.4819 7.86321 11.4762C7.80873 11.4625 7.7598 11.4323 7.7231 11.3898C7.6864 11.3473 7.66371 11.2945 7.65813 11.2386C7.63728 11.0314 7.1844 6.12097 10.1632 2.82919C11.8617 0.95273 14.3302 0.00109863 17.4999 0.00109863C20.6699 0.00109863 23.1381 0.95273 24.8364 2.82926C27.8151 6.12104 27.3622 11.0314 27.3419 11.2386C27.3363 11.294 27.3138 11.3464 27.2777 11.3887C27.2415 11.4311 27.1933 11.4614 27.1395 11.4757C27.028 11.5024 26.9126 11.4624 26.8464 11.3699L24.5741 8.17168C23.7319 8.54069 20.539 9.84423 17.4999 9.84423C14.4594 9.84423 11.1792 8.53905 10.3175 8.17223L8.15661 11.3647C8.13154 11.4017 8.0978 11.4319 8.05833 11.4529C8.01886 11.4738 7.97487 11.4847 7.9302 11.4847ZM24.6671 7.557C24.7531 7.557 24.8375 7.59815 24.8897 7.67184L26.8256 10.3959C26.8251 8.89048 26.5613 5.5475 24.4284 3.19348C22.838 1.43815 20.5075 0.547905 17.4999 0.547905C14.4912 0.547905 12.1591 1.43924 10.5687 3.19615C8.45055 5.53677 8.17684 8.84455 8.17363 10.3638L9.99205 7.67717C10.0282 7.62372 10.0821 7.58479 10.1442 7.5673C10.2064 7.54981 10.2727 7.55488 10.3314 7.58161C10.3693 7.5987 14.158 9.29743 17.4999 9.29743C20.844 9.29743 24.5149 7.59979 24.5512 7.5827C24.5875 7.56588 24.6271 7.55711 24.6671 7.557ZM18.3201 34.9989C18.2842 34.9989 18.2487 34.9919 18.2155 34.9781C18.1823 34.9644 18.1522 34.9443 18.1268 34.9189C18.1014 34.8935 18.0813 34.8633 18.0675 34.8301C18.0538 34.7969 18.0467 34.7614 18.0468 34.7255V26.5229C18.0468 26.3718 18.1691 26.2495 18.3201 26.2495C18.4713 26.2495 18.5936 26.3718 18.5936 26.5229V34.7255C18.5936 34.8766 18.4713 34.9989 18.3201 34.9989ZM16.6797 34.9989C16.5285 34.9989 16.4062 34.8766 16.4062 34.7255V26.5229C16.4062 26.3718 16.5285 26.2495 16.6797 26.2495C16.8308 26.2495 16.953 26.3718 16.953 26.5229V34.7255C16.953 34.8766 16.8308 34.9989 16.6797 34.9989ZM18.867 22.9684C18.8138 22.9685 18.7618 22.953 18.7173 22.9239C18.6728 22.8948 18.6378 22.8533 18.6165 22.8045C18.5876 22.7381 18.5861 22.663 18.6125 22.5955C18.6388 22.5281 18.6908 22.4738 18.757 22.4446L19.1949 22.2555C21.2055 21.3925 23.2845 20.5001 26.2958 16.0117C26.3367 15.9526 26.3991 15.912 26.4697 15.8986C26.5402 15.8852 26.6132 15.9001 26.6728 15.9401C26.7325 15.98 26.774 16.0419 26.7884 16.1123C26.8028 16.1826 26.7889 16.2558 26.7498 16.316C23.6487 20.9385 21.3972 21.9052 19.4107 22.7579L18.9771 22.9454C18.9423 22.9605 18.9049 22.9683 18.867 22.9684ZM16.1325 22.9684C16.0948 22.9683 16.0575 22.9605 16.023 22.9454L15.5888 22.758C13.6025 21.9052 11.3511 20.9386 8.24998 16.3161C8.22996 16.2863 8.21602 16.2528 8.20894 16.2177C8.20186 16.1825 8.20179 16.1462 8.20874 16.111C8.21569 16.0758 8.22951 16.0423 8.24942 16.0124C8.26933 15.9826 8.29494 15.9569 8.32477 15.937C8.35452 15.9168 8.38798 15.9028 8.42319 15.8956C8.45841 15.8885 8.4947 15.8884 8.52995 15.8953C8.56521 15.9023 8.59874 15.9161 8.6286 15.9361C8.65847 15.9561 8.68408 15.9818 8.70396 16.0118C11.7153 20.5002 13.7943 21.3925 15.8046 22.2556L16.2425 22.4446C16.3089 22.4737 16.361 22.528 16.3874 22.5955C16.4138 22.6629 16.4123 22.7382 16.3832 22.8046C16.362 22.8533 16.3269 22.8948 16.2824 22.924C16.2378 22.9531 16.1857 22.9685 16.1325 22.9684Z"
              fill="#464747"/>
        <path d="M18.8671 22.9684C18.8312 22.9684 18.7956 22.9614 18.7625 22.9476C18.7293 22.9339 18.6992 22.9137 18.6738 22.8883L18.127 22.3415C18.0776 22.2898 18.0503 22.2209 18.0511 22.1494C18.0519 22.0779 18.0806 22.0096 18.1311 21.959C18.1817 21.9085 18.25 21.8797 18.3215 21.8789C18.393 21.8782 18.4619 21.9054 18.5136 21.9548L19.0604 22.5017C19.0987 22.5399 19.1248 22.5886 19.1354 22.6417C19.1459 22.6947 19.1405 22.7497 19.1198 22.7997C19.0991 22.8496 19.0641 22.8923 19.0191 22.9224C18.9741 22.9524 18.9212 22.9684 18.8671 22.9684ZM16.1329 22.9684C16.0788 22.9684 16.0259 22.9524 15.9809 22.9224C15.9359 22.8923 15.9009 22.8496 15.8802 22.7997C15.8595 22.7497 15.8541 22.6947 15.8646 22.6417C15.8752 22.5886 15.9013 22.5399 15.9396 22.5017L16.4864 21.9548C16.5117 21.9287 16.5418 21.9079 16.5752 21.8935C16.6086 21.8792 16.6444 21.8717 16.6807 21.8713C16.717 21.871 16.7531 21.878 16.7867 21.8917C16.8203 21.9054 16.8508 21.9258 16.8765 21.9514C16.9021 21.9771 16.9224 22.0076 16.9362 22.0412C16.9499 22.0748 16.9569 22.1108 16.9565 22.1472C16.9562 22.1835 16.9487 22.2193 16.9344 22.2527C16.92 22.2861 16.8992 22.3162 16.8731 22.3415L16.3262 22.8883C16.3008 22.9137 16.2707 22.9339 16.2375 22.9476C16.2044 22.9614 16.1688 22.9684 16.1329 22.9684Z"
              fill="#464747"/>
        <path d="M18.3204 22.4216H16.6799C16.5287 22.4216 16.4064 22.2993 16.4064 22.1482C16.4064 21.9971 16.5287 21.8748 16.6799 21.8748H18.3204C18.4715 21.8748 18.5938 21.9971 18.5938 22.1482C18.5938 22.2993 18.4715 22.4216 18.3204 22.4216ZM21.0546 34.9989C20.9035 34.9989 20.7812 34.8766 20.7812 34.7255V27.89C20.7812 27.7389 20.9035 27.6166 21.0546 27.6166C21.2057 27.6166 21.328 27.7389 21.328 27.89V34.7255C21.328 34.8766 21.2057 34.9989 21.0546 34.9989ZM23.242 34.9989C23.0908 34.9989 22.9685 34.8766 22.9685 34.7255V26.5229C22.9685 26.3718 23.0908 26.2495 23.242 26.2495C23.3931 26.2495 23.5153 26.3718 23.5153 26.5229V34.7255C23.5153 34.8766 23.3931 34.9989 23.242 34.9989ZM25.4293 34.9989C25.2782 34.9989 25.1559 34.8766 25.1559 34.7255V25.2407C25.1559 25.0896 25.2782 24.9673 25.4293 24.9673C25.5805 24.9673 25.7027 25.0896 25.7027 25.2407V34.7255C25.7027 34.8766 25.5805 34.9989 25.4293 34.9989ZM27.6167 34.9989C27.4655 34.9989 27.3433 34.8766 27.3433 34.7255V26.2495C27.3433 26.0983 27.4655 25.976 27.6167 25.976C27.7678 25.976 27.8901 26.0983 27.8901 26.2495V34.7255C27.8901 34.8766 27.7678 34.9989 27.6167 34.9989ZM29.8041 34.9989C29.6529 34.9989 29.5306 34.8766 29.5306 34.7255V27.199C29.5306 27.0479 29.6529 26.9256 29.8041 26.9256C29.9552 26.9256 30.0775 27.0479 30.0775 27.199V34.7256C30.0775 34.7615 30.0704 34.797 30.0567 34.8302C30.043 34.8634 30.0228 34.8935 29.9974 34.9189C29.972 34.9443 29.9419 34.9645 29.9087 34.9782C29.8755 34.9919 29.84 34.999 29.8041 34.9989ZM31.9914 34.9989C31.8403 34.9989 31.718 34.8766 31.718 34.7255V28.0753C31.718 27.9241 31.8403 27.8019 31.9914 27.8019C32.1426 27.8019 32.2649 27.9241 32.2649 28.0753V34.7255C32.2649 34.8766 32.1426 34.9989 31.9914 34.9989ZM13.9456 34.9989C13.7945 34.9989 13.6722 34.8766 13.6722 34.7255V27.89C13.6722 27.7389 13.7945 27.6166 13.9456 27.6166C14.0968 27.6166 14.2191 27.7389 14.2191 27.89V34.7255C14.2191 34.8766 14.0968 34.9989 13.9456 34.9989ZM11.7583 34.9989C11.6071 34.9989 11.4848 34.8766 11.4848 34.7255V26.5229C11.4848 26.3718 11.6071 26.2495 11.7583 26.2495C11.9094 26.2495 12.0317 26.3718 12.0317 26.5229V34.7255C12.0317 34.8766 11.9094 34.9989 11.7583 34.9989ZM9.57091 34.9989C9.41977 34.9989 9.29747 34.8766 9.29747 34.7255V25.2407C9.29747 25.0896 9.41977 24.9673 9.57091 24.9673C9.72205 24.9673 9.84435 25.0896 9.84435 25.2407V34.7255C9.84435 34.8766 9.72205 34.9989 9.57091 34.9989ZM7.38354 34.9989C7.2324 34.9989 7.11011 34.8766 7.11011 34.7255V26.2495C7.11011 26.0983 7.2324 25.976 7.38354 25.976C7.53469 25.976 7.65698 26.0983 7.65698 26.2495V34.7255C7.65698 34.8766 7.53469 34.9989 7.38354 34.9989Z"
              fill="#464747"/>
        <path d="M5.19604 34.9988C5.0449 34.9988 4.92261 34.8766 4.92261 34.7254V27.1989C4.92261 27.0478 5.0449 26.9255 5.19604 26.9255C5.34719 26.9255 5.46948 27.0478 5.46948 27.1989V34.7255C5.4695 34.7614 5.46244 34.797 5.4487 34.8301C5.43497 34.8633 5.41483 34.8935 5.38943 34.9188C5.36403 34.9442 5.33388 34.9644 5.3007 34.9781C5.26752 34.9918 5.23196 34.9989 5.19604 34.9988Z"
              fill="#464747"/>
        <path d="M3.00879 34.9989C2.85765 34.9989 2.73535 34.8766 2.73535 34.7255V28.0752C2.73535 27.9241 2.85765 27.8019 3.00879 27.8019C3.15993 27.8019 3.28223 27.9241 3.28223 28.0752V34.7255C3.28223 34.8766 3.15993 34.9989 3.00879 34.9989Z"
              fill="#464747"/>
        <path d="M27.0698 13.1253C26.9187 13.1253 26.7964 13.003 26.7964 12.8519V12.3051C26.7964 12.1539 26.9187 12.0316 27.0698 12.0316C27.1057 12.0316 27.1413 12.0387 27.1745 12.0524C27.2077 12.0661 27.2378 12.0863 27.2632 12.1117C27.2886 12.1371 27.3087 12.1672 27.3224 12.2004C27.3362 12.2336 27.3432 12.2691 27.3432 12.3051V12.8519C27.3432 13.003 27.2209 13.1253 27.0698 13.1253Z"
              fill="#464747"/>
        <path d="M7.93042 13.1253C7.77928 13.1253 7.65698 13.003 7.65698 12.8519V12.3051C7.65698 12.1539 7.77928 12.0316 7.93042 12.0316C7.96633 12.0316 8.00189 12.0387 8.03507 12.0524C8.06825 12.0661 8.0984 12.0863 8.12379 12.1117C8.14917 12.1371 8.16931 12.1672 8.18304 12.2004C8.19676 12.2336 8.20382 12.2691 8.20379 12.3051V12.8519C8.20379 13.003 8.08149 13.1253 7.93042 13.1253Z"
              fill="#464747"/>
    </g>
    <defs>
        <clipPath id="clip0_2979_11985">
            <rect width="35" height="35" fill="white"/>
        </clipPath>
    </defs>
</svg>
