<svg width="36" height="36" viewBox="0 0 36 36" fill="none" xmlns="http://www.w3.org/2000/svg">
    <g clip-path="url(#clip0_2979_12036)">
        <path d="M1.8392 31.9776C1.6884 31.9776 1.56323 31.8553 1.56323 31.7043C1.56323 31.5532 1.68279 31.431 1.83387 31.431H1.8392C1.8751 31.431 1.91065 31.438 1.94382 31.4518C1.97699 31.4655 2.00713 31.4856 2.03251 31.511C2.0579 31.5364 2.07803 31.5665 2.09175 31.5997C2.10548 31.6329 2.11253 31.6684 2.1125 31.7043C2.11252 31.7402 2.10546 31.7758 2.09173 31.8089C2.078 31.8421 2.05787 31.8722 2.03249 31.8976C2.00711 31.923 1.97697 31.9431 1.94381 31.9569C1.91064 31.9706 1.87509 31.9776 1.8392 31.9776ZM1.8392 28.6977C1.6884 28.6977 1.56323 28.5756 1.56323 28.4244C1.56323 28.2734 1.68279 28.1511 1.83387 28.1511H1.8392C1.87509 28.1511 1.91064 28.1582 1.94381 28.1719C1.97697 28.1856 2.00711 28.2058 2.03249 28.2311C2.05787 28.2565 2.078 28.2867 2.09173 28.3198C2.10546 28.353 2.11252 28.3885 2.1125 28.4244C2.11253 28.4603 2.10548 28.4959 2.09175 28.5291C2.07803 28.5622 2.0579 28.5924 2.03251 28.6178C2.00713 28.6431 1.97699 28.6633 1.94382 28.677C1.91065 28.6907 1.8751 28.6978 1.8392 28.6977ZM3.47914 30.3377C3.32834 30.3377 3.20311 30.2154 3.20311 30.0644C3.20311 29.9132 3.32273 29.7911 3.47381 29.7911H3.47914C3.51504 29.7911 3.5506 29.7981 3.58377 29.8118C3.61695 29.8256 3.64709 29.8457 3.67248 29.8711C3.69787 29.8965 3.718 29.9266 3.73174 29.9598C3.74547 29.9929 3.75253 30.0285 3.75251 30.0644C3.75253 30.1003 3.74547 30.1358 3.73174 30.169C3.718 30.2022 3.69787 30.2323 3.67248 30.2577C3.64709 30.2831 3.61695 30.3032 3.58377 30.3169C3.5506 30.3307 3.51504 30.3377 3.47914 30.3377ZM5.11908 31.9776C4.96828 31.9776 4.84312 31.8553 4.84312 31.7043C4.84312 31.5532 4.96268 31.431 5.11375 31.431H5.11908C5.19157 31.431 5.26108 31.4598 5.31234 31.5111C5.36359 31.5623 5.39238 31.6318 5.39238 31.7043C5.39238 31.7768 5.36359 31.8463 5.31234 31.8976C5.26108 31.9488 5.19157 31.9776 5.11908 31.9776ZM1.8392 25.4179C1.6884 25.4179 1.56323 25.2956 1.56323 25.1445C1.56323 24.9935 1.68279 24.8712 1.83387 24.8712H1.8392C1.87509 24.8712 1.91064 24.8782 1.94381 24.892C1.97697 24.9057 2.00711 24.9258 2.03249 24.9512C2.05787 24.9766 2.078 25.0067 2.09173 25.0399C2.10546 25.073 2.11252 25.1086 2.1125 25.1445C2.1125 25.2956 1.99027 25.4179 1.8392 25.4179ZM3.47914 27.0578C3.32834 27.0578 3.20311 26.9356 3.20311 26.7845C3.20311 26.6335 3.32273 26.5112 3.47381 26.5112H3.47914C3.51504 26.5112 3.55059 26.5182 3.58376 26.532C3.61693 26.5457 3.64707 26.5658 3.67246 26.5912C3.69784 26.6166 3.71798 26.6467 3.73172 26.6799C3.74545 26.7131 3.75252 26.7486 3.75251 26.7845C3.75254 26.8204 3.74548 26.856 3.73175 26.8891C3.71803 26.9223 3.69789 26.9525 3.6725 26.9778C3.64711 27.0032 3.61696 27.0234 3.58378 27.0371C3.5506 27.0508 3.51504 27.0578 3.47914 27.0578ZM5.11908 28.6977C4.96828 28.6977 4.84312 28.5756 4.84312 28.4244C4.84312 28.2734 4.96268 28.1511 5.11375 28.1511H5.11908C5.15498 28.1511 5.19053 28.1582 5.2237 28.1719C5.25687 28.1856 5.28701 28.2058 5.3124 28.2311C5.33779 28.2565 5.35792 28.2867 5.37166 28.3198C5.3854 28.353 5.39246 28.3885 5.39245 28.4244C5.39247 28.4603 5.38541 28.4959 5.37168 28.5291C5.35794 28.5622 5.33781 28.5924 5.31242 28.6178C5.28703 28.6431 5.25689 28.6633 5.22371 28.677C5.19054 28.6907 5.15498 28.6978 5.11908 28.6977ZM6.75902 30.3377C6.60822 30.3377 6.48306 30.2154 6.48306 30.0644C6.48306 29.9132 6.60262 29.7911 6.75369 29.7911H6.75902C6.79492 29.7911 6.83047 29.7981 6.86364 29.8118C6.89681 29.8256 6.92695 29.8457 6.95234 29.8711C6.97772 29.8965 6.99785 29.9266 7.01158 29.9598C7.0253 29.9929 7.03235 30.0285 7.03232 30.0644C7.03234 30.1003 7.02529 30.1358 7.01156 30.169C6.99783 30.2022 6.9777 30.2323 6.95232 30.2577C6.92693 30.2831 6.8968 30.3032 6.86363 30.3169C6.83047 30.3306 6.79492 30.3377 6.75902 30.3377ZM8.39896 31.9776C8.2481 31.9776 8.12293 31.8553 8.12293 31.7043C8.12293 31.5532 8.24256 31.431 8.39356 31.431H8.3989C8.43479 31.431 8.47035 31.438 8.50352 31.4518C8.53669 31.4655 8.56683 31.4856 8.59221 31.511C8.61759 31.5364 8.63772 31.5665 8.65145 31.5997C8.66517 31.6329 8.67222 31.6684 8.6722 31.7043C8.67222 31.7402 8.66518 31.7758 8.65146 31.8089C8.63773 31.8421 8.61761 31.8722 8.59223 31.8976C8.56686 31.923 8.53673 31.9431 8.50356 31.9569C8.4704 31.9706 8.43486 31.9776 8.39896 31.9776ZM1.8392 22.138C1.6884 22.138 1.56323 22.0158 1.56323 21.8647C1.56323 21.7136 1.68279 21.5914 1.83387 21.5914H1.8392C1.8751 21.5914 1.91065 21.5985 1.94382 21.6122C1.97699 21.6259 2.00713 21.646 2.03251 21.6714C2.0579 21.6968 2.07803 21.727 2.09175 21.7601C2.10548 21.7933 2.11253 21.8288 2.1125 21.8647C2.11252 21.9006 2.10546 21.9362 2.09173 21.9694C2.078 22.0025 2.05787 22.0327 2.03249 22.058C2.00711 22.0834 1.97697 22.1036 1.94381 22.1173C1.91064 22.131 1.87509 22.1381 1.8392 22.138ZM3.47914 23.778C3.32834 23.778 3.20311 23.6557 3.20311 23.5047C3.20311 23.3535 3.32273 23.2312 3.47381 23.2312H3.47914C3.51505 23.2312 3.55061 23.2383 3.58379 23.252C3.61697 23.2658 3.64712 23.2859 3.67251 23.3113C3.6979 23.3367 3.71803 23.3668 3.73176 23.4C3.74548 23.4332 3.75254 23.4688 3.75251 23.5047C3.75253 23.5406 3.74547 23.5761 3.73174 23.6093C3.718 23.6425 3.69787 23.6726 3.67248 23.698C3.64709 23.7234 3.61695 23.7435 3.58377 23.7572C3.5506 23.771 3.51504 23.778 3.47914 23.778ZM5.11908 25.4179C4.96828 25.4179 4.84312 25.2956 4.84312 25.1445C4.84312 24.9935 4.96268 24.8712 5.11375 24.8712H5.11908C5.15498 24.8712 5.19053 24.8782 5.2237 24.892C5.25687 24.9057 5.28701 24.9258 5.3124 24.9512C5.33779 24.9766 5.35792 25.0067 5.37166 25.0399C5.3854 25.073 5.39246 25.1086 5.39245 25.1445C5.39247 25.1804 5.38541 25.216 5.37168 25.2491C5.35795 25.2823 5.33781 25.3125 5.31243 25.3379C5.28704 25.3633 5.2569 25.3834 5.22372 25.3971C5.19055 25.4109 5.15499 25.4179 5.11908 25.4179ZM6.75902 27.0578C6.60822 27.0578 6.48306 26.9356 6.48306 26.7845C6.48306 26.6335 6.60262 26.5112 6.75369 26.5112H6.75902C6.79492 26.5112 6.83047 26.5182 6.86363 26.532C6.8968 26.5457 6.92693 26.5658 6.95232 26.5912C6.9777 26.6166 6.99783 26.6467 7.01156 26.6799C7.02529 26.7131 7.03234 26.7486 7.03232 26.7845C7.03235 26.8204 7.0253 26.856 7.01158 26.8891C6.99785 26.9223 6.97772 26.9524 6.95234 26.9778C6.92695 27.0032 6.89681 27.0233 6.86364 27.0371C6.83047 27.0508 6.79492 27.0578 6.75902 27.0578ZM8.39896 28.6977C8.2481 28.6977 8.12293 28.5756 8.12293 28.4244C8.12293 28.2734 8.24256 28.1511 8.39356 28.1511H8.3989C8.43479 28.1511 8.47034 28.1582 8.50351 28.1719C8.53667 28.1856 8.56681 28.2058 8.59219 28.2311C8.61757 28.2565 8.6377 28.2867 8.65143 28.3198C8.66516 28.353 8.67222 28.3885 8.6722 28.4244C8.67224 28.4603 8.66521 28.4959 8.65149 28.5291C8.63778 28.5622 8.61765 28.5924 8.59227 28.6178C8.56689 28.6432 8.53676 28.6633 8.50358 28.677C8.47041 28.6907 8.43486 28.6978 8.39896 28.6977ZM1.8392 18.8581C1.6884 18.8581 1.56323 18.7359 1.56323 18.5848C1.56323 18.4338 1.68279 18.3114 1.83387 18.3114H1.8392C1.99027 18.3114 2.1125 18.4338 2.1125 18.5848C2.11253 18.6207 2.10548 18.6562 2.09175 18.6894C2.07803 18.7226 2.0579 18.7527 2.03251 18.7781C2.00713 18.8035 1.97699 18.8236 1.94382 18.8373C1.91065 18.8511 1.8751 18.8581 1.8392 18.8581ZM3.47914 20.4981C3.32834 20.4981 3.20311 20.3758 3.20311 20.2248C3.20311 20.0737 3.32273 19.9515 3.47381 19.9515H3.47914C3.51504 19.9515 3.5506 19.9585 3.58377 19.9723C3.61695 19.986 3.64709 20.0061 3.67248 20.0315C3.69787 20.0569 3.718 20.087 3.73174 20.1202C3.74547 20.1533 3.75253 20.1889 3.75251 20.2248C3.75253 20.2607 3.74547 20.2963 3.73174 20.3294C3.718 20.3626 3.69787 20.3927 3.67248 20.4181C3.64709 20.4435 3.61695 20.4636 3.58377 20.4774C3.5506 20.4911 3.51504 20.4981 3.47914 20.4981ZM5.11908 22.138C4.96828 22.138 4.84312 22.0158 4.84312 21.8647C4.84312 21.7136 4.96268 21.5914 5.11375 21.5914H5.11908C5.19157 21.5914 5.26108 21.6202 5.31234 21.6715C5.36359 21.7227 5.39238 21.7923 5.39238 21.8647C5.39238 21.9372 5.36359 22.0067 5.31234 22.058C5.26108 22.1093 5.19157 22.138 5.11908 22.138ZM6.75902 23.778C6.60822 23.778 6.48306 23.6557 6.48306 23.5047C6.48306 23.3535 6.60262 23.2312 6.75369 23.2312H6.75902C6.79493 23.2312 6.83048 23.2383 6.86365 23.252C6.89682 23.2658 6.92696 23.2859 6.95234 23.3113C6.97773 23.3367 6.99785 23.3669 7.01158 23.4C7.0253 23.4332 7.03235 23.4688 7.03232 23.5047C7.03234 23.5406 7.02529 23.5761 7.01156 23.6093C6.99783 23.6425 6.9777 23.6726 6.95232 23.698C6.92693 23.7234 6.8968 23.7435 6.86363 23.7572C6.83047 23.771 6.79492 23.778 6.75902 23.778ZM8.39896 25.4179C8.2481 25.4179 8.12293 25.2956 8.12293 25.1445C8.12293 24.9935 8.24256 24.8712 8.39356 24.8712H8.3989C8.43479 24.8712 8.47034 24.8782 8.50351 24.892C8.53667 24.9057 8.56681 24.9258 8.59219 24.9512C8.61757 24.9766 8.6377 25.0067 8.65143 25.0399C8.66516 25.073 8.67222 25.1086 8.6722 25.1445C8.67224 25.1804 8.66521 25.216 8.65149 25.2491C8.63778 25.2823 8.61766 25.3125 8.59228 25.3379C8.5669 25.3633 8.53677 25.3834 8.5036 25.3971C8.47042 25.4109 8.43487 25.4179 8.39896 25.4179ZM14.9587 31.9776C14.8079 31.9776 14.6827 31.8553 14.6827 31.7043C14.6827 31.5532 14.8023 31.431 14.9533 31.431H14.9587C14.9946 31.431 15.0301 31.438 15.0633 31.4518C15.0965 31.4655 15.1266 31.4856 15.152 31.511C15.1774 31.5364 15.1975 31.5665 15.2113 31.5997C15.225 31.6329 15.232 31.6684 15.232 31.7043C15.232 31.7402 15.225 31.7758 15.2113 31.809C15.1975 31.8421 15.1774 31.8723 15.152 31.8976C15.1266 31.923 15.0965 31.9432 15.0633 31.9569C15.0301 31.9706 14.9946 31.9777 14.9587 31.9776ZM1.8392 15.5783C1.6884 15.5783 1.56323 15.456 1.56323 15.3049C1.56323 15.1538 1.68279 15.0316 1.83387 15.0316H1.8392C1.99027 15.0316 2.1125 15.1538 2.1125 15.3049C2.1125 15.456 1.99027 15.5783 1.8392 15.5783ZM3.47914 17.2182C3.32834 17.2182 3.20311 17.096 3.20311 16.9449C3.20311 16.7938 3.32273 16.6716 3.47381 16.6716H3.47914C3.63021 16.6716 3.75251 16.7938 3.75251 16.9449C3.75251 17.096 3.63028 17.2182 3.47914 17.2182ZM5.11908 18.8581C4.96828 18.8581 4.84312 18.7359 4.84312 18.5848C4.84312 18.4338 4.96268 18.3114 5.11375 18.3114H5.11908C5.27016 18.3114 5.39245 18.4338 5.39245 18.5848C5.39247 18.6207 5.38541 18.6562 5.37168 18.6894C5.35794 18.7226 5.33781 18.7527 5.31242 18.7781C5.28703 18.8035 5.25689 18.8236 5.22371 18.8373C5.19054 18.8511 5.15498 18.8581 5.11908 18.8581ZM6.75902 20.4981C6.60822 20.4981 6.48306 20.3758 6.48306 20.2248C6.48306 20.0737 6.60262 19.9515 6.75369 19.9515H6.75902C6.79492 19.9515 6.83047 19.9585 6.86364 19.9723C6.89681 19.986 6.92695 20.0061 6.95234 20.0315C6.97772 20.0569 6.99785 20.087 7.01158 20.1202C7.0253 20.1534 7.03235 20.1889 7.03232 20.2248C7.03234 20.2607 7.02529 20.2962 7.01156 20.3294C6.99783 20.3626 6.9777 20.3927 6.95232 20.4181C6.92693 20.4435 6.8968 20.4636 6.86363 20.4773C6.83047 20.4911 6.79492 20.4981 6.75902 20.4981ZM8.39896 22.138C8.2481 22.138 8.12293 22.0158 8.12293 21.8647C8.12293 21.7136 8.24256 21.5914 8.39356 21.5914H8.3989C8.43479 21.5914 8.47035 21.5985 8.50352 21.6122C8.53669 21.6259 8.56683 21.646 8.59221 21.6714C8.61759 21.6968 8.63772 21.727 8.65145 21.7601C8.66517 21.7933 8.67222 21.8288 8.6722 21.8647C8.67222 21.9006 8.66518 21.9362 8.65146 21.9693C8.63773 22.0025 8.61761 22.0327 8.59223 22.058C8.56686 22.0834 8.53673 22.1035 8.50356 22.1173C8.4704 22.131 8.43486 22.1381 8.39896 22.138ZM14.9587 28.6977C14.8079 28.6977 14.6827 28.5756 14.6827 28.4244C14.6827 28.2734 14.8023 28.1511 14.9533 28.1511H14.9587C14.9946 28.1511 15.0301 28.1582 15.0633 28.1719C15.0965 28.1856 15.1266 28.2058 15.152 28.2311C15.1774 28.2565 15.1975 28.2867 15.2112 28.3198C15.225 28.353 15.232 28.3885 15.232 28.4244C15.2321 28.4603 15.225 28.4959 15.2113 28.5291C15.1975 28.5623 15.1774 28.5924 15.152 28.6178C15.1266 28.6432 15.0965 28.6633 15.0633 28.677C15.0301 28.6907 14.9946 28.6978 14.9587 28.6977ZM16.5987 30.3377C16.4479 30.3377 16.3227 30.2154 16.3227 30.0644C16.3227 29.9132 16.4423 29.7911 16.5933 29.7911H16.5987C16.6346 29.7911 16.6701 29.7981 16.7033 29.8118C16.7365 29.8256 16.7666 29.8457 16.792 29.8711C16.8174 29.8965 16.8375 29.9266 16.8512 29.9598C16.8649 29.9929 16.872 30.0285 16.872 30.0644C16.872 30.1003 16.8649 30.1358 16.8512 30.169C16.8375 30.2021 16.8173 30.2323 16.7919 30.2577C16.7666 30.283 16.7364 30.3032 16.7033 30.3169C16.6701 30.3306 16.6346 30.3377 16.5987 30.3377ZM18.2381 31.9776C18.0873 31.9776 17.962 31.8553 17.962 31.7043C17.962 31.5532 18.0817 31.431 18.2327 31.431H18.238C18.2739 31.431 18.3095 31.438 18.3427 31.4517C18.3759 31.4655 18.4061 31.4856 18.4315 31.511C18.457 31.5363 18.4771 31.5665 18.4909 31.5997C18.5047 31.6328 18.5118 31.6684 18.5118 31.7043C18.5118 31.7402 18.5047 31.7758 18.4909 31.809C18.4772 31.8422 18.457 31.8723 18.4316 31.8977C18.4061 31.9231 18.376 31.9432 18.3428 31.9569C18.3096 31.9706 18.274 31.9777 18.2381 31.9776ZM3.47914 13.9383C3.32834 13.9383 3.20311 13.816 3.20311 13.665C3.20311 13.5139 3.32273 13.3916 3.47381 13.3916H3.47914C3.63021 13.3916 3.75251 13.5139 3.75251 13.665C3.75251 13.816 3.63028 13.9383 3.47914 13.9383ZM5.11908 15.5783C4.96828 15.5783 4.84312 15.456 4.84312 15.3049C4.84312 15.1538 4.96268 15.0316 5.11375 15.0316H5.11908C5.27016 15.0316 5.39245 15.1538 5.39245 15.3049C5.39245 15.456 5.27016 15.5783 5.11908 15.5783ZM6.75902 17.2182C6.60822 17.2182 6.48306 17.096 6.48306 16.9449C6.48306 16.7938 6.60262 16.6716 6.75369 16.6716H6.75902C6.9101 16.6716 7.03232 16.7938 7.03232 16.9449C7.03232 17.096 6.9101 17.2182 6.75902 17.2182ZM8.39896 18.8581C8.2481 18.8581 8.12293 18.7359 8.12293 18.5848C8.12293 18.4338 8.24256 18.3114 8.39356 18.3114H8.3989C8.54997 18.3114 8.6722 18.4338 8.6722 18.5848C8.67224 18.6207 8.66521 18.6562 8.65149 18.6894C8.63778 18.7226 8.61765 18.7527 8.59227 18.7781C8.56689 18.8035 8.53676 18.8236 8.50358 18.8374C8.47041 18.8511 8.43486 18.8581 8.39896 18.8581ZM14.9587 25.4179C14.8079 25.4179 14.6827 25.2956 14.6827 25.1445C14.6827 24.9935 14.8023 24.8712 14.9533 24.8712H14.9587C14.9946 24.8712 15.0301 24.8782 15.0633 24.892C15.0965 24.9057 15.1266 24.9258 15.152 24.9512C15.1774 24.9766 15.1975 25.0067 15.2112 25.0399C15.225 25.073 15.232 25.1086 15.232 25.1445C15.232 25.2956 15.1098 25.4179 14.9587 25.4179ZM16.5987 27.0578C16.4479 27.0578 16.3227 26.9356 16.3227 26.7845C16.3227 26.6335 16.4423 26.5112 16.5933 26.5112H16.5987C16.6346 26.5112 16.6701 26.5182 16.7033 26.532C16.7364 26.5457 16.7666 26.5658 16.792 26.5912C16.8173 26.6166 16.8375 26.6467 16.8512 26.6799C16.8649 26.7131 16.872 26.7486 16.872 26.7845C16.872 26.8204 16.8649 26.856 16.8512 26.8891C16.8375 26.9223 16.8174 26.9524 16.792 26.9778C16.7666 27.0032 16.7365 27.0233 16.7033 27.0371C16.6701 27.0508 16.6346 27.0578 16.5987 27.0578ZM18.2381 28.6977C18.0873 28.6977 17.962 28.5756 17.962 28.4244C17.962 28.2734 18.0817 28.1511 18.2327 28.1511H18.238C18.3105 28.1511 18.3802 28.1798 18.4315 28.2311C18.4829 28.2823 18.5118 28.3519 18.5118 28.4244C18.5118 28.4604 18.5047 28.4959 18.491 28.5291C18.4772 28.5623 18.457 28.5924 18.4316 28.6178C18.4062 28.6432 18.376 28.6633 18.3428 28.677C18.3096 28.6908 18.274 28.6978 18.2381 28.6977ZM19.8796 30.3377C19.7285 30.3377 19.6036 30.2154 19.6036 30.0644C19.6036 29.9132 19.7232 29.7911 19.8738 29.7911H19.8796C19.9521 29.7911 20.0216 29.8199 20.0729 29.8712C20.1241 29.9224 20.1529 29.9919 20.153 30.0644C20.1529 30.1368 20.1241 30.2063 20.0728 30.2576C20.0216 30.3088 19.9521 30.3376 19.8796 30.3377ZM21.5195 31.9776C21.3684 31.9776 21.2436 31.8553 21.2436 31.7043C21.2436 31.5532 21.3631 31.431 21.5136 31.431H21.5195C21.592 31.4311 21.6615 31.4599 21.7127 31.5111C21.764 31.5624 21.7928 31.6319 21.7928 31.7043C21.7928 31.7768 21.764 31.8463 21.7127 31.8975C21.6615 31.9488 21.592 31.9776 21.5195 31.9776ZM6.75902 13.9383C6.60822 13.9383 6.48306 13.816 6.48306 13.665C6.48306 13.5139 6.60262 13.3916 6.75369 13.3916H6.75902C6.9101 13.3916 7.03232 13.5139 7.03232 13.665C7.03232 13.816 6.9101 13.9383 6.75902 13.9383ZM8.39896 15.5783C8.2481 15.5783 8.12293 15.456 8.12293 15.3049C8.12293 15.1538 8.24256 15.0316 8.39356 15.0316H8.3989C8.54997 15.0316 8.6722 15.1538 8.6722 15.3049C8.6722 15.456 8.55004 15.5783 8.39896 15.5783ZM14.9587 22.138C14.8079 22.138 14.6827 22.0158 14.6827 21.8647C14.6827 21.7136 14.8023 21.5914 14.9533 21.5914H14.9587C14.9946 21.5914 15.0301 21.5985 15.0633 21.6122C15.0965 21.6259 15.1266 21.646 15.152 21.6714C15.1774 21.6968 15.1975 21.727 15.2113 21.7601C15.225 21.7933 15.232 21.8288 15.232 21.8647C15.232 21.9006 15.225 21.9362 15.2113 21.9694C15.1975 22.0025 15.1774 22.0327 15.152 22.0581C15.1266 22.0834 15.0965 22.1036 15.0633 22.1173C15.0301 22.131 14.9946 22.1381 14.9587 22.138ZM16.5987 23.778C16.4479 23.778 16.3227 23.6557 16.3227 23.5047C16.3227 23.3535 16.4423 23.2312 16.5933 23.2312H16.5987C16.6346 23.2312 16.6701 23.2383 16.7033 23.252C16.7365 23.2658 16.7666 23.2859 16.792 23.3113C16.8174 23.3367 16.8375 23.3669 16.8512 23.4C16.8649 23.4332 16.872 23.4688 16.872 23.5047C16.872 23.5406 16.8649 23.5761 16.8512 23.6093C16.8375 23.6424 16.8173 23.6726 16.7919 23.698C16.7666 23.7233 16.7364 23.7435 16.7033 23.7572C16.6701 23.7709 16.6346 23.778 16.5987 23.778ZM18.2381 25.4179C18.0873 25.4179 17.962 25.2956 17.962 25.1445C17.962 24.9935 18.0817 24.8712 18.2327 24.8712H18.238C18.3105 24.8711 18.3802 24.8999 18.4315 24.9511C18.4829 25.0024 18.5118 25.0719 18.5118 25.1445C18.5118 25.1804 18.5047 25.216 18.491 25.2492C18.4772 25.2824 18.457 25.3125 18.4316 25.3379C18.4062 25.3633 18.376 25.3834 18.3428 25.3972C18.3096 25.4109 18.274 25.418 18.2381 25.4179ZM19.8796 27.0578C19.7285 27.0578 19.6036 26.9356 19.6036 26.7845C19.6036 26.6335 19.7232 26.5112 19.8738 26.5112H19.8796C19.9521 26.5113 20.0216 26.5401 20.0728 26.5913C20.1241 26.6426 20.1529 26.712 20.153 26.7845C20.1529 26.857 20.1241 26.9265 20.0729 26.9777C20.0216 27.029 19.9521 27.0578 19.8796 27.0578ZM21.5195 28.6977C21.3684 28.6977 21.2436 28.5756 21.2436 28.4244C21.2436 28.2734 21.3631 28.1511 21.5136 28.1511H21.5195C21.592 28.1512 21.6615 28.18 21.7127 28.2312C21.764 28.2825 21.7928 28.352 21.7928 28.4244C21.7928 28.4969 21.764 28.5664 21.7127 28.6177C21.6615 28.6689 21.592 28.6977 21.5195 28.6977ZM14.9587 18.8581C14.8079 18.8581 14.6827 18.7359 14.6827 18.5848C14.6827 18.4338 14.8023 18.3114 14.9533 18.3114H14.9587C15.1097 18.3114 15.232 18.4338 15.232 18.5848C15.2321 18.6207 15.225 18.6563 15.2113 18.6894C15.1975 18.7226 15.1774 18.7527 15.152 18.7781C15.1266 18.8035 15.0965 18.8236 15.0633 18.8374C15.0301 18.8511 14.9946 18.8581 14.9587 18.8581ZM16.5987 20.4981C16.4479 20.4981 16.3227 20.3758 16.3227 20.2248C16.3227 20.0737 16.4423 19.9515 16.5933 19.9515H16.5987C16.6346 19.9515 16.6701 19.9585 16.7033 19.9723C16.7365 19.986 16.7666 20.0061 16.792 20.0315C16.8174 20.0569 16.8375 20.087 16.8512 20.1202C16.8649 20.1534 16.872 20.1889 16.872 20.2248C16.872 20.2607 16.8649 20.2962 16.8512 20.3294C16.8375 20.3626 16.8173 20.3927 16.7919 20.4181C16.7666 20.4435 16.7364 20.4636 16.7033 20.4773C16.6701 20.4911 16.6346 20.4981 16.5987 20.4981ZM18.2381 22.138C18.0873 22.138 17.962 22.0158 17.962 21.8647C17.962 21.7136 18.0817 21.5914 18.2327 21.5914H18.238C18.2739 21.5914 18.3095 21.5984 18.3427 21.6122C18.3759 21.6259 18.4061 21.646 18.4315 21.6714C18.457 21.6968 18.4771 21.7269 18.4909 21.7601C18.5047 21.7933 18.5118 21.8288 18.5118 21.8647C18.5118 21.9007 18.5047 21.9362 18.4909 21.9694C18.4772 22.0026 18.457 22.0327 18.4316 22.0581C18.4061 22.0835 18.376 22.1036 18.3428 22.1173C18.3096 22.131 18.274 22.1381 18.2381 22.138ZM19.8796 23.778C19.7285 23.778 19.6036 23.6557 19.6036 23.5047C19.6036 23.3535 19.7232 23.2312 19.8738 23.2312H19.8796C19.9521 23.2313 20.0216 23.2602 20.0729 23.3114C20.1241 23.3627 20.1529 23.4322 20.153 23.5047C20.1529 23.5771 20.1241 23.6466 20.0728 23.6979C20.0216 23.7491 19.9521 23.7779 19.8796 23.778ZM21.5195 25.4179C21.3684 25.4179 21.2436 25.2956 21.2436 25.1445C21.2436 24.9935 21.3631 24.8712 21.5136 24.8712H21.5195C21.592 24.8712 21.6615 24.9001 21.7127 24.9513C21.764 25.0025 21.7928 25.072 21.7928 25.1445C21.7928 25.2956 21.67 25.4179 21.5195 25.4179ZM14.9587 15.5783C14.8079 15.5783 14.6827 15.456 14.6827 15.3049C14.6827 15.1538 14.8023 15.0316 14.9533 15.0316H14.9587C15.1097 15.0316 15.232 15.1538 15.232 15.3049C15.232 15.456 15.1098 15.5783 14.9587 15.5783ZM16.5987 17.2182C16.4479 17.2182 16.3227 17.096 16.3227 16.9449C16.3227 16.7938 16.4423 16.6716 16.5933 16.6716H16.5987C16.7497 16.6716 16.872 16.7938 16.872 16.9449C16.872 17.096 16.7497 17.2182 16.5987 17.2182ZM18.2381 18.8581C18.0873 18.8581 17.962 18.7359 17.962 18.5848C17.962 18.4338 18.0817 18.3114 18.2327 18.3114H18.238C18.3891 18.3114 18.5118 18.4338 18.5118 18.5848C18.5118 18.6207 18.5047 18.6563 18.491 18.6895C18.4772 18.7227 18.457 18.7528 18.4316 18.7782C18.4062 18.8036 18.376 18.8237 18.3428 18.8374C18.3096 18.8511 18.274 18.8581 18.2381 18.8581ZM19.8796 20.4981C19.7285 20.4981 19.6036 20.3758 19.6036 20.2248C19.6036 20.0737 19.7232 19.9515 19.8738 19.9515H19.8796C19.9521 19.9515 20.0216 19.9803 20.0729 20.0316C20.1241 20.0828 20.1529 20.1523 20.153 20.2248C20.1529 20.2973 20.1241 20.3667 20.0728 20.418C20.0216 20.4692 19.9521 20.498 19.8796 20.4981ZM21.5195 22.138C21.3684 22.138 21.2436 22.0158 21.2436 21.8647C21.2436 21.7136 21.3631 21.5914 21.5136 21.5914H21.5195C21.592 21.5915 21.6615 21.6203 21.7127 21.6715C21.764 21.7228 21.7928 21.7923 21.7928 21.8647C21.7928 21.9372 21.764 22.0067 21.7127 22.0579C21.6615 22.1092 21.592 22.138 21.5195 22.138ZM16.5987 13.9383C16.4479 13.9383 16.3227 13.816 16.3227 13.665C16.3227 13.5139 16.4423 13.3916 16.5933 13.3916H16.5987C16.7497 13.3916 16.872 13.5139 16.872 13.665C16.872 13.816 16.7497 13.9383 16.5987 13.9383ZM18.2381 15.5783C18.0873 15.5783 17.962 15.456 17.962 15.3049C17.962 15.1538 18.0817 15.0316 18.2327 15.0316H18.238C18.3891 15.0316 18.5118 15.1538 18.5118 15.3049C18.5118 15.456 18.3891 15.5783 18.2381 15.5783ZM19.8796 17.2182C19.7285 17.2182 19.6036 17.096 19.6036 16.9449C19.6036 16.7938 19.7232 16.6716 19.8738 16.6716H19.8796C20.0301 16.6716 20.153 16.7938 20.153 16.9449C20.153 17.096 20.0301 17.2182 19.8796 17.2182ZM21.5195 18.8581C21.3684 18.8581 21.2436 18.7359 21.2436 18.5848C21.2436 18.4338 21.3631 18.3114 21.5136 18.3114H21.5195C21.592 18.3115 21.6615 18.3403 21.7127 18.3916C21.764 18.4428 21.7928 18.5123 21.7928 18.5848C21.7928 18.6573 21.764 18.7268 21.7127 18.778C21.6615 18.8293 21.592 18.8581 21.5195 18.8581ZM19.8796 13.9383C19.7285 13.9383 19.6036 13.816 19.6036 13.665C19.6036 13.5139 19.7232 13.3916 19.8738 13.3916H19.8796C20.0301 13.3916 20.153 13.5139 20.153 13.665C20.153 13.816 20.0301 13.9383 19.8796 13.9383ZM21.5195 15.5783C21.3684 15.5783 21.2436 15.456 21.2436 15.3049C21.2436 15.1538 21.3631 15.0316 21.5136 15.0316H21.5195C21.592 15.0316 21.6615 15.0605 21.7127 15.1117C21.764 15.1629 21.7928 15.2324 21.7928 15.3049C21.7928 15.3774 21.764 15.4469 21.7127 15.4981C21.6615 15.5494 21.592 15.5782 21.5195 15.5783Z"
              fill="#464747"/>
        <path d="M22.5964 33.071H0.730401C0.69449 33.071 0.658929 33.0639 0.62575 33.0502C0.59257 33.0365 0.562424 33.0163 0.537035 32.9909C0.511646 32.9655 0.491512 32.9354 0.477784 32.9022C0.464056 32.869 0.457004 32.8334 0.457031 32.7975V12.5717C0.457013 12.5358 0.464072 12.5002 0.477804 12.4671C0.491535 12.4339 0.511671 12.4038 0.537059 12.3784C0.562447 12.353 0.592591 12.3328 0.625765 12.3191C0.65894 12.3054 0.694496 12.2983 0.730401 12.2983H22.5964C22.6323 12.2983 22.6679 12.3054 22.7011 12.3191C22.7342 12.3328 22.7644 12.353 22.7898 12.3784C22.8151 12.4038 22.8353 12.4339 22.849 12.4671C22.8627 12.5003 22.8698 12.5358 22.8697 12.5717V32.7975C22.8697 32.9486 22.7475 33.071 22.5964 33.071ZM1.0037 32.5242H22.3231V12.845H1.0037V32.5242Z"
              fill="#464747"/>
        <path d="M9.47674 33.071C9.44083 33.071 9.40527 33.0639 9.37209 33.0502C9.33891 33.0365 9.30876 33.0163 9.28337 32.9909C9.25798 32.9655 9.23785 32.9354 9.22412 32.9022C9.21039 32.869 9.20334 32.8334 9.20337 32.7975V12.5717C9.20337 12.4206 9.32566 12.2983 9.47674 12.2983C9.62781 12.2983 9.75004 12.4206 9.75004 12.5717V32.7975C9.75004 32.9486 9.62781 33.071 9.47674 33.071ZM13.8499 33.071C13.814 33.071 13.7784 33.0639 13.7453 33.0502C13.7121 33.0364 13.682 33.0163 13.6566 32.9909C13.6312 32.9655 13.6111 32.9354 13.5973 32.9022C13.5836 32.869 13.5766 32.8334 13.5766 32.7975V12.5717C13.5766 12.5358 13.5836 12.5003 13.5973 12.4671C13.6111 12.4339 13.6312 12.4038 13.6566 12.3784C13.682 12.353 13.7121 12.3328 13.7453 12.3191C13.7784 12.3054 13.814 12.2983 13.8499 12.2983C13.8858 12.2983 13.9214 12.3054 13.9545 12.3191C13.9877 12.3328 14.0178 12.353 14.0432 12.3784C14.0686 12.4038 14.0888 12.4339 14.1025 12.4671C14.1162 12.5002 14.1233 12.5358 14.1233 12.5717V32.7975C14.1233 32.8334 14.1162 32.869 14.1025 32.9022C14.0887 32.9353 14.0686 32.9655 14.0432 32.9909C14.0178 33.0163 13.9877 33.0364 13.9545 33.0502C13.9214 33.0639 13.8858 33.071 13.8499 33.071Z"
              fill="#464747"/>
        <path d="M19.3165 11.7537C19.2689 11.7537 19.221 11.7414 19.1777 11.7158C17.8177 10.9135 15.0335 9.5676 11.6631 9.5676C8.28742 9.5676 5.50649 10.9121 4.14922 11.7134C4.1183 11.7317 4.08409 11.7437 4.04854 11.7487C4.01299 11.7537 3.97679 11.7517 3.94202 11.7428C3.90724 11.7338 3.87457 11.7181 3.84587 11.6965C3.81717 11.675 3.793 11.6479 3.77475 11.617C3.73792 11.5546 3.72738 11.4801 3.74544 11.4099C3.7635 11.3396 3.80868 11.2795 3.87107 11.2425C5.2764 10.4129 8.15747 9.021 11.6631 9.021C15.1635 9.021 18.0476 10.4143 19.4552 11.2449C19.4862 11.2631 19.5132 11.2872 19.5349 11.3159C19.5565 11.3446 19.5722 11.3772 19.5812 11.412C19.5902 11.4467 19.5922 11.4829 19.5872 11.5185C19.5822 11.554 19.5702 11.5882 19.5519 11.6191C19.5277 11.6601 19.4933 11.6941 19.452 11.7177C19.4107 11.7413 19.364 11.7537 19.3165 11.7537Z"
              fill="#464747"/>
        <path d="M6.47022 11.7539C6.41944 11.7539 6.36966 11.7398 6.32646 11.7131C6.28326 11.6864 6.24837 11.6482 6.22569 11.6028C6.19327 11.5381 6.18788 11.4631 6.21071 11.3944C6.23354 11.3256 6.28272 11.2688 6.34744 11.2363C6.43898 11.1904 8.62531 10.1118 11.662 10.1118C14.6993 10.1118 16.887 11.1901 16.9788 11.2361C17.0435 11.2686 17.0927 11.3255 17.1155 11.3942C17.1384 11.463 17.1331 11.538 17.1007 11.6028C17.0682 11.6675 17.0113 11.7167 16.9426 11.7397C16.8739 11.7626 16.7988 11.7573 16.734 11.7251C16.7126 11.7144 14.564 10.6585 11.662 10.6585C8.76094 10.6585 6.61357 11.7144 6.59224 11.7251C6.55432 11.744 6.51256 11.7538 6.47022 11.7539Z"
              fill="#464747"/>
        <path d="M11.6632 7.92498C11.6273 7.925 11.5917 7.91794 11.5586 7.90421C11.5254 7.89047 11.4953 7.87034 11.4699 7.84495C11.4445 7.81956 11.4244 7.78942 11.4106 7.75624C11.3969 7.72307 11.3899 7.68751 11.3899 7.65161V3.82513C11.3899 3.67405 11.5121 3.55176 11.6632 3.55176C11.8143 3.55176 11.9366 3.67405 11.9366 3.82513V7.65161C11.9366 7.68752 11.9295 7.72307 11.9158 7.75625C11.9021 7.78942 11.8819 7.81956 11.8565 7.84495C11.8311 7.87034 11.801 7.89048 11.7678 7.90421C11.7347 7.91794 11.6991 7.925 11.6632 7.92498Z"
              fill="#464747"/>
        <path d="M8.8624 8.16971C8.79819 8.16971 8.73604 8.14707 8.68688 8.10577C8.63772 8.06447 8.60469 8.00716 8.59361 7.94392L7.9295 4.17561C7.92322 4.14027 7.92398 4.10404 7.93172 4.069C7.93946 4.03395 7.95404 4.00078 7.97462 3.97137C7.9952 3.94197 8.02137 3.91691 8.05165 3.89764C8.08192 3.87836 8.1157 3.86524 8.15105 3.85904C8.30001 3.83156 8.44151 3.93163 8.46762 4.08059L9.13173 7.8489C9.13874 7.88823 9.13702 7.92862 9.12671 7.96721C9.1164 8.00581 9.09774 8.04167 9.07205 8.07226C9.04637 8.10286 9.01428 8.12744 8.97805 8.14428C8.94183 8.16112 8.90235 8.1698 8.8624 8.16971Z"
              fill="#464747"/>
        <path d="M6.14777 8.89724C6.09168 8.89725 6.03696 8.87999 5.99102 8.84781C5.94508 8.81564 5.91017 8.7701 5.89101 8.71739L4.582 5.12141C4.56968 5.08769 4.56414 5.05188 4.56568 5.01601C4.56723 4.98015 4.57584 4.94494 4.59102 4.91241C4.60619 4.87988 4.62764 4.85066 4.65413 4.82643C4.68062 4.8022 4.71162 4.78343 4.74537 4.77121C4.88681 4.72021 5.04404 4.79254 5.09558 4.93459L6.40452 8.53049C6.41684 8.56421 6.42238 8.60003 6.42084 8.6359C6.41929 8.67176 6.41068 8.70697 6.3955 8.7395C6.38032 8.77203 6.35888 8.80125 6.33239 8.82548C6.3059 8.84971 6.2749 8.86847 6.24115 8.8807C6.21122 8.89159 6.17962 8.89719 6.14777 8.89724Z"
              fill="#464747"/>
        <path d="M3.6005 10.085C3.55246 10.085 3.50525 10.0724 3.46363 10.0485C3.42201 10.0245 3.38745 9.98992 3.36343 9.94831L1.44971 6.63432C1.43176 6.60323 1.42011 6.5689 1.41542 6.53331C1.41074 6.49771 1.41311 6.46154 1.4224 6.42687C1.4317 6.39219 1.44773 6.35968 1.46959 6.3312C1.49144 6.30272 1.5187 6.27882 1.54979 6.26087C1.58087 6.24287 1.61519 6.23119 1.65079 6.22648C1.68639 6.22177 1.72256 6.22413 1.75725 6.23343C1.79193 6.24272 1.82444 6.25877 1.85292 6.28066C1.88139 6.30254 1.90526 6.32982 1.92317 6.36095L3.83696 9.67501C3.86096 9.71654 3.8736 9.76365 3.87363 9.81161C3.87365 9.85958 3.86104 9.9067 3.83708 9.94825C3.81311 9.98979 3.77863 10.0243 3.73711 10.0483C3.69558 10.0723 3.64847 10.0849 3.6005 10.085Z"
              fill="#464747"/>
        <path d="M19.7255 10.086C19.6775 10.0861 19.6303 10.0735 19.5888 10.0495C19.5472 10.0255 19.5126 9.99102 19.4887 9.94944C19.4647 9.90786 19.4521 9.86068 19.4521 9.81268C19.4522 9.76468 19.465 9.71754 19.4891 9.67603L21.4013 6.36204C21.4191 6.33089 21.443 6.30357 21.4714 6.28167C21.4999 6.25976 21.5324 6.2437 21.5671 6.2344C21.6017 6.22509 21.6379 6.22274 21.6735 6.22747C21.7091 6.2322 21.7434 6.24392 21.7745 6.26196C21.8056 6.2799 21.8328 6.30379 21.8547 6.33228C21.8765 6.36077 21.8926 6.39329 21.9018 6.42798C21.9111 6.46267 21.9134 6.49885 21.9087 6.53444C21.904 6.57003 21.8923 6.60434 21.8743 6.63541L19.962 9.9494C19.9381 9.99097 19.9037 10.0255 19.8621 10.0495C19.8206 10.0735 19.7735 10.0861 19.7255 10.086Z"
              fill="#464747"/>
        <path d="M17.177 8.89824C17.133 8.89828 17.0897 8.88772 17.0507 8.86745C17.0117 8.84718 16.9782 8.81779 16.953 8.78179C16.9278 8.74579 16.9116 8.70424 16.9059 8.66066C16.9002 8.61709 16.9051 8.57277 16.9201 8.53149L18.2278 4.93585C18.24 4.90208 18.2588 4.87106 18.283 4.84456C18.3073 4.81806 18.3365 4.7966 18.3691 4.78143C18.4017 4.76625 18.4369 4.75765 18.4728 4.75611C18.5087 4.75457 18.5445 4.76013 18.5783 4.77247C18.612 4.7847 18.643 4.80347 18.6695 4.8277C18.696 4.85193 18.7174 4.88115 18.7326 4.91368C18.7478 4.94622 18.7564 4.98142 18.7579 5.01729C18.7594 5.05315 18.7539 5.08897 18.7416 5.12268L17.4337 8.71838C17.4146 8.77109 17.3796 8.81663 17.3337 8.84881C17.2878 8.88098 17.233 8.89824 17.177 8.89824Z"
              fill="#464747"/>
        <path d="M14.4623 8.17081C14.4223 8.1709 14.3829 8.16222 14.3466 8.14538C14.3104 8.12854 14.2783 8.10396 14.2526 8.07336C14.2269 8.04277 14.2083 8.00691 14.198 7.96831C14.1877 7.92972 14.1859 7.88933 14.1929 7.85L14.8565 4.08169C14.8827 3.93328 15.0239 3.83211 15.1731 3.86014C15.2084 3.86635 15.2422 3.87946 15.2725 3.89874C15.3028 3.91801 15.3289 3.94307 15.3495 3.97248C15.3701 4.00188 15.3847 4.03506 15.3924 4.0701C15.4002 4.10515 15.4009 4.14137 15.3946 4.17671L14.7311 7.94502C14.7199 8.00824 14.6869 8.06552 14.6377 8.10681C14.5886 8.1481 14.5265 8.17076 14.4623 8.17081Z"
              fill="#464747"/>
        <path d="M10.8431 33.0711C10.8072 33.0711 10.7717 33.064 10.7385 33.0503C10.7053 33.0365 10.6752 33.0164 10.6498 32.991C10.6244 32.9656 10.6043 32.9354 10.5906 32.9023C10.5768 32.8691 10.5698 32.8335 10.5698 32.7976V26.7845C10.5698 26.6335 10.6921 26.5112 10.8431 26.5112C10.9942 26.5112 11.1165 26.6335 11.1165 26.7845V32.7976C11.1165 32.9487 10.9942 33.0711 10.8431 33.0711Z"
              fill="#464747"/>
        <path d="M12.4833 19.9514C12.4474 19.9515 12.4118 19.9444 12.3787 19.9307C12.3455 19.9169 12.3154 19.8968 12.29 19.8714C12.2646 19.8461 12.2445 19.8159 12.2307 19.7828C12.217 19.7496 12.2099 19.714 12.21 19.6781V12.5717C12.21 12.4206 12.3322 12.2983 12.4833 12.2983C12.6343 12.2983 12.7566 12.4206 12.7566 12.5717V19.6781C12.7566 19.714 12.7495 19.7496 12.7358 19.7828C12.7221 19.8159 12.7019 19.8461 12.6766 19.8714C12.6512 19.8968 12.621 19.9169 12.5879 19.9307C12.5547 19.9444 12.5192 19.9515 12.4833 19.9514Z"
              fill="#464747"/>
        <path d="M24.1449 13.5037C23.9939 13.5037 23.8689 13.3814 23.8689 13.2303C23.8689 13.0793 23.9885 12.957 24.139 12.957H24.1449C24.2173 12.957 24.2869 12.9858 24.3381 13.0371C24.3894 13.0883 24.4182 13.1578 24.4182 13.2303C24.4182 13.3028 24.3894 13.3723 24.3381 13.4236C24.2869 13.4748 24.2173 13.5036 24.1449 13.5037ZM26.2942 14.3758C26.1431 14.3758 26.0182 14.2535 26.0182 14.1025C26.0182 13.9514 26.1377 13.8291 26.2883 13.8291H26.2942C26.4447 13.8291 26.5675 13.9514 26.5675 14.1025C26.5674 14.1749 26.5386 14.2444 26.4874 14.2957C26.4361 14.3469 26.3666 14.3757 26.2942 14.3758ZM25.4218 16.5247C25.2708 16.5247 25.1459 16.4024 25.1459 16.2513C25.1459 16.1003 25.2655 15.978 25.4159 15.978H25.4218C25.4943 15.9781 25.5638 16.0069 25.6151 16.0581C25.6663 16.1093 25.6951 16.1789 25.6952 16.2513C25.6951 16.3238 25.6663 16.3933 25.6151 16.4446C25.5638 16.4958 25.4943 16.5247 25.4218 16.5247ZM27.571 17.3964C27.42 17.3964 27.2951 17.2742 27.2951 17.1231C27.2951 16.9721 27.4146 16.8498 27.5652 16.8498H27.571C27.7216 16.8498 27.8443 16.9721 27.8443 17.1231C27.8443 17.1956 27.8155 17.2651 27.7642 17.3163C27.713 17.3676 27.6435 17.3964 27.571 17.3964ZM26.6988 19.5456C26.5478 19.5456 26.4228 19.4233 26.4228 19.2723C26.4228 19.1212 26.5424 18.999 26.6929 18.999H26.6988C26.7713 18.9991 26.8408 19.0279 26.892 19.0791C26.9433 19.1304 26.9721 19.1999 26.9721 19.2723C26.9721 19.3448 26.9433 19.4143 26.892 19.4656C26.8407 19.5168 26.7712 19.5456 26.6988 19.5456ZM29.2526 25.5876C29.1015 25.5876 28.9766 25.4653 28.9766 25.3143C28.9766 25.1631 29.0963 25.041 29.2467 25.041H29.2526C29.3251 25.041 29.3946 25.0698 29.4459 25.121C29.4971 25.1723 29.5259 25.2418 29.526 25.3143C29.5259 25.3868 29.4971 25.4563 29.4458 25.5075C29.3946 25.5587 29.3251 25.5876 29.2526 25.5876ZM31.4018 26.4599C31.2508 26.4599 31.1259 26.3377 31.1259 26.1866C31.1259 26.0355 31.2454 25.9133 31.3959 25.9133H31.4018C31.4743 25.9133 31.5438 25.9421 31.595 25.9934C31.6463 26.0446 31.6751 26.1141 31.6751 26.1866C31.6751 26.259 31.6463 26.3285 31.595 26.3798C31.5438 26.431 31.4743 26.4598 31.4018 26.4599ZM30.5296 28.6091C30.3785 28.6091 30.2536 28.4868 30.2536 28.3357C30.2536 28.1847 30.3732 28.0624 30.5237 28.0624H30.5296C30.602 28.0624 30.6715 28.0912 30.7228 28.1425C30.7741 28.1937 30.8029 28.2632 30.8029 28.3357C30.8029 28.4868 30.6802 28.6091 30.5296 28.6091ZM32.6788 29.4814C32.5277 29.4814 32.4027 29.3591 32.4027 29.2081C32.4027 29.057 32.5224 28.9348 32.6729 28.9348H32.6788C32.7513 28.9348 32.8207 28.9636 32.872 29.0149C32.9232 29.0661 32.952 29.1356 32.9521 29.2081C32.952 29.2806 32.9232 29.3501 32.872 29.4013C32.8207 29.4525 32.7512 29.4814 32.6788 29.4814ZM31.8064 31.6306C31.6554 31.6306 31.5305 31.5083 31.5305 31.3573C31.5305 31.2061 31.65 31.084 31.8006 31.084H31.8064C31.8789 31.084 31.9484 31.1128 31.9997 31.164C32.051 31.2153 32.0798 31.2848 32.0798 31.3573C32.0798 31.4297 32.0509 31.4992 31.9997 31.5505C31.9484 31.6017 31.8789 31.6305 31.8064 31.6306Z"
              fill="#464747"/>
        <path d="M31.1836 33.0732C31.13 33.073 31.0775 33.0572 31.0327 33.0276C30.9879 32.9979 30.9528 32.9559 30.9317 32.9065L22.4192 12.7661C22.4053 12.733 22.3979 12.6975 22.3977 12.6616C22.3975 12.6257 22.4043 12.5901 22.4178 12.5568C22.4314 12.5235 22.4513 12.4933 22.4766 12.4677C22.5018 12.4421 22.5318 12.4218 22.5649 12.4079L26.0871 10.919C26.1539 10.8908 26.2292 10.8903 26.2964 10.9174C26.3635 10.9448 26.417 10.9976 26.4454 11.0642L34.9578 31.2046C34.9856 31.2718 34.9861 31.3466 34.9589 31.4139C34.9317 31.4812 34.879 31.5349 34.8122 31.5633L31.29 33.0517C31.2563 33.0659 31.2202 33.0732 31.1836 33.0732ZM23.0294 12.805L31.3288 32.4415L34.3477 31.1663L26.0481 11.5289L23.0294 12.805Z"
              fill="#464747"/>
        <path d="M26.0758 20.9891C26.0221 20.9891 25.9695 20.9733 25.9247 20.9437C25.8799 20.914 25.8448 20.8719 25.8238 20.8225C25.7956 20.7556 25.7951 20.6802 25.8224 20.6129C25.8497 20.5456 25.9026 20.492 25.9695 20.4637L29.4918 18.9744C29.6295 18.9167 29.7907 18.9802 29.85 19.1195C29.8782 19.1864 29.8787 19.2618 29.8513 19.329C29.824 19.3963 29.7711 19.45 29.7042 19.4782L26.182 20.9677C26.1484 20.9819 26.1123 20.9891 26.0758 20.9891Z"
              fill="#464747"/>
        <path d="M27.7787 25.0174C27.725 25.0174 27.6725 25.0016 27.6276 24.972C27.5828 24.9424 27.5477 24.9002 27.5267 24.8508C27.5127 24.8177 27.5054 24.7821 27.5051 24.7462C27.5049 24.7102 27.5117 24.6746 27.5253 24.6413C27.5388 24.608 27.5588 24.5777 27.584 24.5521C27.6093 24.5265 27.6393 24.5061 27.6724 24.4922L31.1946 23.0027C31.3324 22.945 31.4936 23.0086 31.5528 23.148C31.5811 23.2149 31.5816 23.2902 31.5542 23.3575C31.5269 23.4248 31.474 23.4784 31.4071 23.5067L27.8849 24.996C27.8513 25.0102 27.8152 25.0174 27.7787 25.0174Z"
              fill="#464747"/>
        <path d="M30.0269 20.5064C29.978 20.5065 29.93 20.4935 29.8878 20.4687C29.8457 20.4439 29.8109 20.4083 29.7872 20.3655C29.7522 20.3021 29.7437 20.2273 29.7637 20.1577C29.7837 20.088 29.8306 20.0292 29.894 19.994C29.9148 19.9823 31.9941 18.815 32.1639 17.4724C32.2237 16.9976 32.0336 16.5595 31.5831 16.1333C31.0177 15.5989 30.5287 15.3921 30.1343 15.5175C29.4686 15.7273 29.1023 16.851 29.0175 17.2663C29.0104 17.3015 28.9964 17.335 28.9763 17.3647C28.9562 17.3945 28.9305 17.42 28.9005 17.4398C28.8705 17.4596 28.837 17.4733 28.8017 17.4801C28.7664 17.4869 28.7302 17.4866 28.695 17.4794C28.624 17.4649 28.5617 17.4228 28.5216 17.3624C28.4816 17.302 28.4671 17.2282 28.4815 17.1572C28.4965 17.0835 28.8605 15.3472 29.9682 14.9965C30.5682 14.8075 31.2388 15.0549 31.9589 15.7361C32.537 16.2833 32.7885 16.8908 32.7063 17.542C32.5007 19.159 30.2544 20.4194 30.1588 20.4723C30.1166 20.4957 30.0712 20.5064 30.0269 20.5064Z"
              fill="#464747"/>
        <path d="M33.8565 26.1085C32.9708 26.1085 32.0564 25.5298 32.0072 25.4983C31.9464 25.4591 31.9036 25.3973 31.8882 25.3266C31.8728 25.2559 31.8861 25.1819 31.9251 25.121C31.9644 25.0602 32.0261 25.0174 32.0967 25.0019C32.1674 24.9864 32.2414 24.9994 32.3025 25.0382C32.6597 25.2666 33.7209 25.786 34.3347 25.4555C34.7009 25.2586 34.8921 24.7643 34.9023 23.9875C34.9108 23.3666 34.7288 22.9246 34.3465 22.6368C33.265 21.8228 30.9802 22.5018 30.9578 22.5083C30.9234 22.5187 30.8873 22.5222 30.8515 22.5187C30.8158 22.5152 30.781 22.5046 30.7494 22.4877C30.7177 22.4707 30.6896 22.4477 30.6669 22.4198C30.6441 22.392 30.6271 22.36 30.6167 22.3256C30.5957 22.2563 30.6031 22.1815 30.6373 22.1177C30.6714 22.0538 30.7295 22.0061 30.7987 21.985C30.9033 21.9535 33.3712 21.2202 34.6743 22.1998C35.1991 22.5942 35.4595 23.1981 35.4489 23.995C35.4356 24.9853 35.1478 25.6393 34.5927 25.9376C34.3641 26.0606 34.1111 26.1085 33.8565 26.1085Z"
              fill="#464747"/>
        <path d="M31.9704 22.2957C31.9116 22.2958 31.8543 22.2769 31.807 22.2419C31.7489 22.1985 31.7104 22.1339 31.6999 22.0621C31.6894 21.9903 31.7078 21.9174 31.7511 21.8591C31.7596 21.8468 32.0238 21.4486 31.711 20.7076C31.3976 19.9672 30.9279 19.8786 30.9081 19.8753C30.7614 19.8508 30.6589 19.712 30.6813 19.5647C30.7031 19.4178 30.8387 19.3138 30.9845 19.3341C31.0165 19.3383 31.7724 19.4504 32.2145 20.4946C32.6559 21.5399 32.2091 22.1596 32.1899 22.1858C32.1644 22.2199 32.1312 22.2476 32.0931 22.2667C32.055 22.2857 32.013 22.2957 31.9704 22.2957Z"
              fill="#464747"/>
        <path d="M30.45 21.5145C30.3963 21.5145 30.3439 21.4987 30.2992 21.469C30.2544 21.4394 30.2194 21.3973 30.1985 21.3479C30.1845 21.3148 30.1771 21.2794 30.1768 21.2435C30.1765 21.2077 30.1832 21.1721 30.1966 21.1388C30.2101 21.1056 30.2299 21.0753 30.2551 21.0497C30.2802 21.0242 30.3102 21.0038 30.3432 20.9898L30.8482 20.7751C30.986 20.7153 31.1471 20.781 31.2064 20.9198C31.2657 21.0585 31.2005 21.2187 31.0617 21.278L30.5567 21.4926C30.523 21.5071 30.4867 21.5146 30.45 21.5145Z"
              fill="#464747"/>
    </g>
    <defs>
        <clipPath id="clip0_2979_12036">
            <rect width="35" height="35" fill="white" transform="translate(0.453125 0.8125)"/>
        </clipPath>
    </defs>
</svg>
